/* XPM */
static char *_8fb693a6df645cea4b9c45d69df9a1aoXQDeArBXRNmQpaV[] = {
/* columns rows colors chars-per-pixel */
"64 96 183 2 ",
"   c None",
".  c #161B29",
"X  c #1A1E2C",
"o  c #3C1E23",
"O  c #1C222E",
"+  c #2B2226",
"@  c #23232B",
"#  c #2C2B2A",
"$  c #262126",
"%  c #322224",
"&  c #3F2122",
"*  c #34262A",
"=  c #3E2729",
"-  c #3E292B",
";  c #372A2A",
":  c #3D3025",
">  c #222631",
",  c #262B36",
"<  c #2A2C35",
"1  c #2A2E38",
"2  c #352E36",
"3  c #3B2E35",
"4  c #372F38",
"5  c #2C313A",
"6  c #32353D",
"7  c #3A333B",
"8  c #34393F",
"9  c #3C373B",
"0  c #45261E",
"q  c #47281E",
"w  c #4B2B1C",
"e  c #502F1C",
"r  c #4F301C",
"t  c #4E3A1D",
"y  c #563617",
"u  c #5C3C16",
"i  c #53331A",
"p  c #583719",
"a  c #57391A",
"s  c #5B3B19",
"d  c #583817",
"f  c #603F15",
"g  c #422421",
"h  c #472821",
"j  c #4A2B22",
"k  c #412D2E",
"l  c #4F3223",
"z  c #49372A",
"x  c #523223",
"c  c #5A3B22",
"v  c #523E24",
"b  c #412F31",
"n  c #453534",
"m  c #463C3C",
"M  c #4B3E36",
"N  c #50373B",
"B  c #5E4119",
"V  c #654315",
"C  c #684715",
"Z  c #674817",
"A  c #6A4815",
"S  c #63441A",
"D  c #69471C",
"F  c #66491A",
"G  c #6D4C1B",
"H  c #714E1A",
"J  c #6F501F",
"K  c #75521C",
"L  c #79561D",
"P  c #7C591F",
"I  c #58432C",
"U  c #4A413E",
"Y  c #52413F",
"T  c #6A4A24",
"R  c #704F20",
"E  c #745322",
"W  c #785623",
"Q  c #7D5B21",
"!  c #6E5339",
"~  c #363B42",
"^  c #393E44",
"/  c #443C42",
"(  c #3C4146",
")  c #3F434A",
"_  c #454144",
"`  c #41454C",
"'  c #494749",
"]  c #454A4E",
"[  c #4C4947",
"{  c #574B49",
"}  c #574A46",
"|  c #494D52",
" . c #464A52",
".. c #4D5255",
"X. c #4E5259",
"o. c #555B55",
"O. c #5D5A55",
"+. c #52555C",
"@. c #555A5C",
"#. c #595E59",
"$. c #585355",
"%. c #575151",
"&. c #645E59",
"*. c #615954",
"=. c #5C625C",
"-. c #64635D",
";. c #6C6059",
":. c #5B5E62",
">. c #5F6464",
",. c #5E6169",
"<. c #626761",
"1. c #646A64",
"2. c #6A6C66",
"3. c #65686B",
"4. c #6B6F69",
"5. c #64646A",
"6. c #736A64",
"7. c #687067",
"8. c #6D726B",
"9. c #6F796F",
"0. c #677067",
"q. c #72746E",
"w. c #70786F",
"e. c #6B6E72",
"r. c #726B7E",
"t. c #6C7170",
"y. c #757672",
"u. c #727A71",
"i. c #797C76",
"p. c #747579",
"a. c #777A7A",
"s. c #7B7E7A",
"d. c #797471",
"f. c #815E22",
"g. c #856224",
"h. c #896625",
"j. c #8D6927",
"k. c #896728",
"l. c #8C6929",
"z. c #916D2A",
"x. c #95712B",
"c. c #9A762E",
"v. c #81776E",
"b. c #807E7D",
"n. c #7C827C",
"m. c #788077",
"M. c #888175",
"N. c #81847E",
"B. c #82887E",
"V. c #797B80",
"C. c #7F8280",
"Z. c #838583",
"A. c #858985",
"S. c #8A8A86",
"D. c #8C8D8A",
"F. c #838488",
"G. c #8D928B",
"H. c #91938E",
"J. c #8F9093",
"K. c #959692",
"L. c #969995",
"P. c #999A95",
"I. c #9C9D99",
"U. c #A09E9C",
"Y. c #9DA19B",
"T. c #A1A19D",
"R. c #A3A29F",
"E. c #A4A5A1",
"W. c #A5A9A4",
"Q. c #AAA9A6",
"!. c #ACADA9",
"~. c #AAA7A5",
"^. c #B3ABAA",
"/. c #ACB0AA",
"(. c #B2B2AE",
"). c #BFB5AB",
"_. c #B4B5B1",
"`. c #BDBDBB",
"'. c #B8B9B6",
"]. c #C4B59F",
"[. c #C1C0BE",
"{. c #C7C6C5",
"}. c #D3D2D1",
/* pixels */
"                                                                                                                                ",
"                                                                                                                                ",
"                                                                                                                                ",
"                                                                                                                                ",
"                                                                                                                                ",
"                                                                                                                                ",
"                                                                                                                                ",
"                                                                                                                                ",
"                                                                                                                                ",
"                                                                                                                                ",
"                                                                                                                                ",
"                                                                                                                                ",
"                                                                                                                                ",
"                                                                                                                                ",
"                                                                                                                                ",
"                                            S.S.S.U.R.E.~.^.Q.Q.^.S.S./ / / / / 7 7                                             ",
"                                    D.S.U.U.U.P.K.i.. M.P.Y.R.!._.P.q.> ~.E.S.q.S./ / / / 3                                     ",
"                                ^.!.Q.R.B.[ ..8.N.4.2.@ m.w.i.i.q.A.a.~ E.Z.L.Z.q.y.q., X.5._ /   S.                            ",
"                            ).^.(.Q.Y.G.O O H.S.i.y.> A.S.q.q.i.u.8.7.:.C.1.1.9.b., < D.D.S.U.H./ 9 y.                          ",
"                        ).U.S.K.S.i.i.8.> Q.i.q.q.O S.Z.=.=.8.2.<.1.1 ( P.<.-.8.q., D._.Z.S.Z.A.n.q.O 9 w.M.6.                  ",
"                    ].~.4.. X w.y.7.q.n.+.K.q.o.#.5.A.=.=.=.=.<.8., X.L.s.#.a.y.< ~ L.1.2.y.q.s.y.s.> E.7 7 w.u.6.              ",
"                S.P.`.t.s.O O w.9.8.s.Z.6 7.i.i.1 2.) 3.( , 8 ^ ~ > ,.^ y.y.o.6 U.I.s.q.u.1.q.q.8.5 Q.P.9.K./ 4 2 v.            ",
"            S.E.(.P.Q.m.i.> 9...o.o.t.5 X +.3.8.^ P.R.H.W.W..., , Q.P.8 < < `  .K.#.#.a.s.8.1., 1 a.'.4.t.i.K.~ 2 2 4           ",
"      S.K.D.p.D.B.C.q.s.q.| o.@..., :.!.D.L.s.^ q.P.8.4.y.i.B.q.~ R.S.K.N.Z.D.A., , q.#.=.8.1 < E.E.y.y.#.=.=.^ K.n.5 2 2       ",
"    r.~.R.y.A.i.q.q.8.y.5 i.A.A.8.1 :.y.m.s.y.6 < S.S.1.-.1.1.1.O X.!.m.w.q.n.s.m.1 5 y.5 5 q.y.N.q.1.=.o.q.^ N.G.A.X.q.D.$.    ",
"d.K.^.e.G...3.u.q.7.y.` @.P.0.<.<.4.5 8.8.8.q.w.9.> G.m.m.9.9.q.O O A.' <.1.q.q., L.I.p.q.8., +.^ s.y.=.q.q.| R.8.w.~ 4.R.L.%.2 ",
"D.R.3.N.q.s.] 8.7.~ 5 q.A.y.<.<.y.1.1.5 9.9.w._ 4 $ $ N I : y O O i i y ' o.q.) 6 <.1.u.W.q.O Y.a.| 8.o.^ I.R.1.7.w.N.J.P.q.i.2 ",
"1.H.w.w.s.y.u.. . ( ( ~ , 1.8.8.<.4.4.~ ( 9 : r y i B & q q q % % w e 0 r e e _ $.O.9.u.<.y.O D.I.F.) y.e.S.q.=.q.y.` K.s.q.q.y.",
"] q.1.s.a.0.9.+.G.P.y.9.1.< 5 1.q.q.8.< M y 0 & w w & & 0 0 q : % w i & w w w & & y U ] ] w., R.D.a.+.X.y.1...) ` @.`.P.s.N.y.q.",
"2.=.n.m.0.=.| E.P.A.u.1.9.i.5 O > < : y r w w & q 0 & & 0 0 0 & & w w & w w q & & 0 e a } ^ < P.P.y.~ @.$...3.s.3.`.E.8.4.s.q.t.",
"=.< < 1 ) ^ ~ Y.y.y.u.y.<.O , ..z y y & r w w 0 0 0 & & 0 0 0 g % q e 0 & w w 0 & 0 w w r I &.R.n.N.s.~ b.`._.!.L.^ y.8.q.s.q.u.",
"@ 5 A.C.) ( 3.:.q.q.y.1.=.~ , y w w w & r 0 q & 0 & 0 o 0 0 0 & % w w w 0 w q w & 0 w q & w e w e o i 6 E.i.q.q.1 s.] ) ^ ( ] 5 ",
"3.W.D.D.=.i.i.y.~ 6 6 ( ~ @ y q q w q & e e w & 0 0 0 0 w r w $ $ u y y & r w r & 0 w w & w w w w o w e m O.<.8.< 8.n.[.'.`._.Y.",
"Z.G.1.u.1.y.y.y.#...< 1 7 y w 0 & q w & w q q g 0 0 0 & i u i $ $ d r d 0 y i i & q w w & q w q w 0 w w w m _ 8.1., =.L.D.A.m.m.",
"F.t.u.1.w.q.q.y.y.>./ q i w w 0 0 0 q g w w q g p s f 0 V u i O O V y 0 g V Z S o i w w & e e w w & w w w w 6.-.w., Z.n.1.1.m.9.",
"..y.-.=.q.q.w.9.o.l i g w w 0 0 0 q w 0 w e p 0 H V u 0 V V y O O V y g g G y Z g p G c & e e w w 0 e w q w w e < n.R.=.=.0.9.m.",
"q.w.=.w.0.9.8.z i e e & q w w g & q e 0 i s V h H f V 0 f V y O O f V g g G f V g A D i o p p i w 0 0 c e o 0 w e i 9.>.1.>.0.m.",
"< =.q.0.w._ l & w r w 0 g w w 0 0 e w & f V C h A V u 0 V V y O O V V 0 S V V V & C K S o s T p i & e S e & g w w 0 q., , ( ( ) ",
", < 6 1.M t y & e w w & & w w q h f y 0 V V G h C f 0 o V p p O O V V f h C V V g f L V o V K f u 0 d p D o & i y o t y 1 5 >.) ",
"E...5 < y d r & w w e 0 g w i h w D f & V s H 0 V y g j V y y O O V y V g C C o & L V C o A P C V 0 f f R o & y i & a a n.Y.n./.",
"y.P.H.6.s r r & e e i & g e p h h y f h y E y g y y h y V y d X O V y H g C V g o Q V C o C f.V C g C y Q o 0 i r o a a y i.8.8.",
"q.q.d.  T r y o e s g g f u R w w f p h y R p g y y g.0 V y d O O y y K g C C o o R V y o j.C C V g C C Q & s i & & a d a m.7.9.",
"q.y.q.[ i i y o p i g & f f.V i e C f & u W V g y y g.g V s d O O y y K j C C o o R C y o z.C V y & C C C y g D & o u d y n.7.8.",
"8.q.y.U i w y o p p h & H k.f x y f f & Q y V & y H g.g H D d O O y y j C A C g o P y y o W g.p d g C y g.g o s q u B d a m.7.9.",
"w.q.q.m i w i & a T h & H H H s q C i & E p V & y h.C g D y y O O y y j C A C S o P V y o W C g.0 g C C h.& o V h G S s y a.7.u.",
"q.q.q.n i i y o i D q g K V G x w C o g W V V & D j.C j u y y O y y y j C A C H o P A y o f.V k.q g C C S & o V 0 s Z p y m.8.1.",
"8 6 6 n @ + + o f A q O O O O O O O O O O O O & z.y C h V y O O y V p j V C C V h O O O O O O O O O O O O o o V O O O O O  .3.~ ",
"y.H.y.- % + + + @ O O O O O O O O O O O O O O O O y K h u y O O y C y h P C y O X O O O O O O O O O O O O O O O O O O 5 n.W.H.) ",
"`.!.q.- $ $ + + f H T O @ O O O O O O @ X @ O x T y K h d y O O p C C g j C V d g O O O O O O O O O O O X o z.V O O O O p.y.L.P.",
"=.q.4.k w y + o f H H j s H s w e L V & V y o j f C K & p y O O C C C f j C C V g C C y o y d f C x C C p o z.A V j f y y.C.<.9.",
"=.y.;.k w y e & V H K j K K u w e K K & S y g g f V L g y y O O A C y V j f.s C g C V d o y d A C x Z A f o V x.d w f y u.n.<.u.",
"#.q.&.- w y e & C H f.j L u V w C G H & V H V g S L V h y y V O d A p C j z.s C g H C y o y f A y x A C & & V z.d w s p u.a.s.0.",
"o.u.-.g w y w o A H o x V V V q C L f & f K V g f W V w V A S X y A V V j R A y g H S f o f A C V x A A o w C x.V q s y y.1.s.0.",
"#.8.&.k q i w & f g.S & d V V q V L V & H C C & C W A h A V y O y C C C h E A C g A f f o f A d V j A p o o A x.Z g B y y.Z.1.0.",
"4.=.-.k w i w o f k.f g p V C g C L C & K A V & H H A g A V d @ y A V y g E C C g C T f o C C y A l D f o o V c.Z q B y ~ Z.<.9.",
"5 =.-.k w y y o f g.P & d V V q V L o 0 H C V & G V A h p y y X y A C o l.f K A & k.f V o Z A C A l C f K o p c.u q s ! T.5 5 X.",
" .1 2 ; q y y o V R l.g i V p h V P o & H A V o G f 0 q V y y O y A C o l.C H C & g.H C o C y C j x C V L o V c.f 0 B s E.}.{.`.",
"`.`.i.- w i w g f y l.& p p V 0 V P 0 g A V V & A G h q C y y O C C C o l.C C C o g.H C o Z C A j j Z V L o c.A C q S y y.C.4.4.",
"9.Y.~.k w y i o f i g.g p d V h V f.V w A A V & H A g h C y y O O y C o l.C V V o g.H C o C C A j h 0 C K o c.Z V w S y Z.C.4.9.",
"t.4.q.n p i y g G p k.g y y V 0 A P y j A V A & A H q q C p y O O p A o f.g.C V 0 h.H C o p C A q h h V K o c.V V i S y Z.=.4.9.",
"u.2.y.b y r i o T y k.g y y V g H P d h V C A & A A j C V y y O X y C o h.f.V V q h.K C o f.A A C q y V L o c.S Z q D y A.>.<.u.",
"w.1.w.b r x i g D y k.& W y V g H Q y h y C G o Z C w A C y y O O p A o l.C P d 0 h.H V o f.C Z C g f V L o c.V Z h F y F.<.1.9.",
"8.q.w.b i i y g y R k.g W y C j L C W h f V C & C V j A C y y O O p C C o A C w j A H V o C P y C g C P y o c.Z q V D a A.2.=.9.",
"7.q.w.n i e i & y G Q g W y C q H C W q f C G g C d j A V y y O O y f C o g.C g x C H C o y L y C & C P y o c.Z g q D y A.7.=.( ",
"7.q.1.N i w y g V K W g W a A q d L W q f C A g D E @ h V V y O O y f f o O V 0 h.C V C o C A d C g A P y o c.C g g T p ` 1 5 ~ ",
"w.< 5 * i r y g Z G W & s W Z q y K f.q f C A g V R O g C V y O O y f y o O p & h.C C y o A A y A q V f.y o c.V g g f i F.E.D.u.",
"< 5 -.- w q y & Z W L & y W V 0 y K f.q f A D g C v O @ C V C O O d V q O O p & h.C C y o C y y A h A R y o l.C g o f y A.y.D.Y.",
"u.`.D.= w i i g p S g.& u W V q y L f.w f A V h # @ O O O C C O O f f o X O @ j C C V C o A y y K w f.y y o k.C h o f y F.2.0.9.",
"Q.(.-.= w y e 0 s s Q & f Q A h y H f.q f C V g @ S V & @ C C O O y f O q L O @ A C V A o y y y j 0 Q y y o g.A h & f y F.9.1.9.",
"1.q.&.= w i w g p A Q g f Q A 0 f G x 0 f C V g # y q h # y C O O y V O 0 f.O @ h.V V A o y C d h q K y V o Q A l & f p A.Z.1.9.",
"u.w.*.= q i 0 h p C Q g f Q A 0 V G x g V C V g j.@ @ @ C C y O O y f @ O O O h f.V V A o A f.A j q K y S Z o S l g 0 y a.A.<.u.",
"u.q.*.= w i g 0 p V f.g u f.C h C f c h y C C g h.C V j C C y O O y V A x C C j V f.V A o V f.A P j s A V g o V j f g y a.A.<.1.",
"<.w.{ h w y h h V V g.h s W A q V f g.w V C H g h.C V q C C d O O V y C x V C H 0 V L C g o g.A f.h V S y o o A h V p d p.A.4.~ ",
"1.q.{ = w y p g V V f.g V V A q C V f.w f C H 0 h.C h q C C y O O V y C j C C H q y C K o & g.V f.0 H S V o o V h V u y p.W. .1 ",
"1 y.{ = w y t g V V g.g f f C 0 V V c e V f f.q g.V h C C y y O O y V V j C C H h y C H o o h.A f.h K C A o & V g V y y T.`.!.P.",
"e., * * w y w h H V W h f f C 0 V V x e y V f.q f.S H 0 C y O O O d V V h C C V j C C y o C g.C f.h D K Z o S V h S d y y.A.4.0.",
"!.y.3 * w e w w V y P h y f A 0 V V c w y V f.g Q C G h C y O O O y S V j C C V h C C y o Z h.C f.j y K A o V K h S u y y.A.1.9.",
"=.y.Y q w e q h V y P g d f C q C y x p y C g.h Q C H h V y O O y y C h g V V y g V C y o C d f.I h C L A o V P O q a y y.A.4.9.",
"#.=.* % % & q 0 V f # O @ O O O O O X @ O O g.g y f.H h V y O O y y A & g y C y g O O @ O O O O O O O O O o f.O O O O O a.Z.1.9.",
"u.=.* % % % % $ O O O O @ O O O O O O O O O O O > f.V h C y O O y y A & g p C O O O O O O O O O O O O O O O O O O O O O y.C.4.9.",
"=.=.{ % % % i @ O O @ @ O O @ X O O O O O O @ g d Q K 0 S y O O y y V g o u C g h O O O O O O O O O O O O O f.O O O O O y.C.9.9.",
"=.q.*.% + % i & Q V S O O O K h C D q S V S g.& q Q q g B y O @ y y C o & S V & j Z d o o A V f.C w B d v o f.y O O y O y.C.4.9.",
"y.=.q.w w y i 0 P V A T C y K q Z Z q r Z Z W h & P h g B y O @ y V C & & B p g l y y o o A V W A 0 V d s o o y w w y y p.A.4.8.",
"q.#.d.n w e r 0 Q y A g C y P g Z S a w V V J q q Q h q B d O O s C C o L s d g j V y o o C y L u 0 A y K o o V j S V y a., , < ",
"w.=.1 * w r i 0 Q y V g A H V h F a y r V V K & j A Z j B y O O s C Z o c s y g Q C d o o C E C s q Z y K o J Z 0 V Z y a.~.D.1.",
",.< , k q r q 0 V W V g A D A h V s S w V V g.o j V V q J y O O y V A o x 0 V g P V d G o A E y u & Z V G o B Z q S V d Z.D.D.(.",
"/.Q.1.k q r q g S Q V g V P A h d S y x C g.V & P V Z 0 i y O O O u C o s h V g P C S C o C f.y s g A V Z & V Z g B V y d.Z.7.9.",
"u.y.#.k w r w h A f.A g A K A q V D w s V h.Z g L y w q c y O O O s C d q j C g P y G C o Q C C Z 0 Z Z Z o Z V g S Z V a.Z.8.9.",
"u.y.$.- q r i h C f.C j H f A g V A x x g.C C o K y V q s p O O O s u d q h C 0 Q y R A o P A Z Z 0 A C V o B V l B F y 0.C.8.u.",
"u.q.O.- r i i g V f.C R A V d g C d x i h.V g 0 G y C q c p d O O y B V h g C q V R R A o G A A Z & A A V o V V & s F y 8.Z.7.9.",
"9.u.&.- j r i 0 V V f.w A f p h V y q W H A o 0 V y V l q y d O O y S C & & Z C g f.A A o f A A Z o C f.i o S V & Z F y q.) 5 ( ",
") , 2 = r i i 0 V V f.j A f V h V V q l.D C o h s V C x C y y O O y S C o o A Z o g.A A o s C A A g C g.d o Z Z & Z V y E.{.K.`.",
"!.(.# * r y y 0 V V C & V V y h C V c h y C y C g V C x C C V O O s S C o C C C g f f.A o o C A C g h.Z V o V Z g 0 s y Y.{.P.u.",
"u.y.O.3 r i f w V y C & C V y h V V x i V C V w o V g.q C C C O O y C C o V C C h V f.A o o C C C g g.V Z o V F = g B d u.Z.>.9.",
"u.y.=.3 i i V q C d y 0 V C y g y y p w V C V o 0 W f.0 y C d O O y C d o V V y 0 V d G o o A Z y o h.V V o V a g g B y q.-.9.9.",
"u.9.<.2 y y V w V y y d C V y h y y y V V y y 0 y y y e y y y y O y y d o y y d f y y p o o A C y o Q y V o y y & g S y y.<.<.9."
};
