/* XPM */
static char *e3dab40679f3414afd5f5116c5dcdc3e9C8NWNS0HyuU0J2N[] = {
/* columns rows colors chars-per-pixel */
"60 60 132 2 ",
"   c None",
".  c black",
"X  c #020101",
"o  c #020202",
"O  c #040303",
"+  c #040404",
"@  c gray2",
"#  c #060505",
"$  c #060606",
"%  c #070707",
"&  c #080707",
"*  c #0B0A0A",
"=  c #0B0B0B",
"-  c #0C0C0C",
";  c #0D0C0C",
":  c #0F0E0E",
">  c #111010",
",  c #131212",
"<  c #141212",
"1  c #141313",
"2  c gray8",
"3  c #151515",
"4  c #161616",
"5  c #171616",
"6  c #181818",
"7  c #191818",
"8  c #1A1919",
"9  c #1B1919",
"0  c #1B1B1B",
"q  c #1D1B1B",
"w  c #1D1C1C",
"e  c #1E1D1D",
"r  c #330F0F",
"t  c #201E1E",
"y  c #211F1F",
"u  c #262323",
"i  c #272525",
"p  c #272626",
"a  c #272727",
"s  c #282626",
"d  c #282727",
"f  c #2D2A2A",
"g  c #2D2B2B",
"h  c #2E2B2B",
"j  c #2F2B2B",
"k  c #2E2C2C",
"l  c #302E2E",
"z  c #312E2E",
"x  c #323131",
"c  c #343232",
"v  c #373737",
"b  c #383737",
"n  c #3A3737",
"m  c #3B3838",
"M  c #3C3838",
"N  c #3C3939",
"B  c #3C3B3B",
"V  c #3F3C3C",
"C  c #403E3E",
"Z  c #403F3F",
"A  c #413F3F",
"S  c #423E3E",
"D  c #423F3F",
"F  c #433F3F",
"G  c #414040",
"H  c #424040",
"J  c #424141",
"K  c #434141",
"L  c #444141",
"P  c #444242",
"I  c #444343",
"U  c #454343",
"Y  c #464242",
"T  c #464343",
"R  c #454444",
"E  c #464444",
"W  c #474545",
"Q  c #474646",
"!  c #484646",
"~  c #494747",
"^  c #4A4747",
"/  c #4C4747",
"(  c #4A4848",
")  c #4C4949",
"_  c #4E4949",
"`  c #4D4B4B",
"'  c #4E4B4B",
"]  c #4F4C4C",
"[  c #504B4B",
"{  c #504D4D",
"}  c #514D4D",
"|  c #514E4E",
" . c #524F4F",
".. c #535050",
"X. c #555151",
"o. c #565252",
"O. c #565353",
"+. c #585454",
"@. c #595555",
"#. c #5A5656",
"$. c #5B5656",
"%. c #5A5757",
"&. c #5B5757",
"*. c #5C5757",
"=. c #5D5757",
"-. c #5E5757",
";. c #5C5858",
":. c #5D5858",
">. c #5D5959",
",. c #5E5959",
"<. c #5F5B5B",
"1. c #605B5B",
"2. c #605C5C",
"3. c #615C5C",
"4. c #625D5D",
"5. c #635E5E",
"6. c #655C5C",
"7. c #645F5F",
"8. c #656060",
"9. c #666060",
"0. c #666161",
"q. c #676161",
"w. c #676262",
"e. c #686262",
"r. c #686363",
"t. c #696363",
"y. c #696464",
"u. c #6A6464",
"i. c #6B6464",
"p. c #6A6565",
"a. c #6B6565",
"s. c #F2EB00",
/* pixels */
"                                                                                                                        ",
"                                                                                                                        ",
"                                                                                                                        ",
"                                                                                                                        ",
"                                                                                                                        ",
"                                                                                                                        ",
"                                                                                                                        ",
"                                                                                                                        ",
"                                                                                                                        ",
"                                                                                                                        ",
"                                                                                                                        ",
"                    H %.u.u.u.u.u.u.u.u.C $ 0 C H H %.u.p.p.u.u.p.u.u.u.p.V o b p.p.p.p.u.                              ",
"                  C H %.u.q.q.r.a.a.a.a.H $ w I Q Q %.u.p.u.q.q.u.u.a.u.a.n o V u.q.q.r.u.                              ",
"                  C H %.q.O. .5.a.a.u.0 6 6 a 6 6 6 6 6 0 6 6 6 5 5 0 4 a.b o n u.%.] 5.u.                              ",
"                  C H %.q. .' 5.u.u.0 6 6 6 6 6 6 6 6 6 6 6 6 6 5 0 0 5 5 V o b q.] Q %.u.                              ",
"                  C H %.r.5.5.q.a.u.6 $ r r r r $ r r r r % r r r r & r 5 n o n r. .I >.u.                              ",
"                  z z I [ [ [ [  .4 4 * r r r r & r r r r $ r r r r % r 0 4 o d ' n c I [                               ",
"                  = ; > < < < < , 0 , $ r r r r & r r r r $ r r r r % r , 6 o * < > = > <                               ",
"                  y y y y y 9 & $ 6.6.6.r r r r $ r r r r % r r r r % r r 0 w 4 y 5 5 9 u                               ",
"                  -.>.-.>.-./ 5 5 6.4 6.r r r r * r r r r $ r r r r % r 6.6.6.0 -.I V  .>.                              ",
"                  %.%.6.a.a.O.5 0 6.r 6.r r r r % r r r r % r r r r % r 6.r 6.6 r.[ I >.u.                              ",
"                  H Q %.a.a.O.0 4 6.6.6.6.6.r r % r r r r % r r r r % r 6.r 6.6 r.[ Q >.u.                              ",
"                  O.O.5.a.a.O.4 0 r r 6.r 6.r r % r r r r % r r r r $ r 6.6.6.6 r.>.o.6.u.                              ",
"                  u.u.u.u.u.O.0 5 r r 6.r 6.r r % r r r r % r r r 6.6.6.r r 6 6 a.a.a.a.u.                              ",
"                  h k k k k u 4 r r r 6.6.6.6.6.% r r r r % r r r 6.& 6.r r r 6 k k k k k                               ",
"                  $ $ $ $ $ o 0 r r r % r 6.r 6.% r r r r % r r r 6.% 6.r r r 6 $ $ $ & $                               ",
"                  C C H V k d 4 z z r % r 6.r 6.% r r r r % 6.6.6.6.6.6.r r r 4 C I C C I                               ",
"                  q.q.u.6. .I 0 z z r % r 6.6.6.6.6.r r r % 6.r 6.r $ r r r r 0 r.r.q.r.u.                              ",
"                  ' ] >.r.5.%.4 r r r % r r r 6.% 6.r r r % 6.r 6.r $ r r r r 0 r.o. .1.u.                              ",
"                  Q ( >.u.u.5.4 r r r % r r r 6.% 6.r 6.6.6.6.6.6.r & r r r r 5 r.O.' 1.u.                              ",
"                  1.1.q.a.a.q.0 r r r % r r r 6.6.6.6.6.r 6.r r r r $ r r r r 5 r.6.1.r.u.                              ",
"                  [ [ [ [ [ ' 0 r r r % r r r r % 6.r 6.r 6.r r s.r & s.r r r 0 [ [ [ [ [                               ",
"                  < , < < < < 0 r r r % r r r r % 6.r 6.6.6.r r r s.s.r r r r 6 , < < < <                               ",
"                  4 4 < 4 9 0 4 r r r % r r r r 6.6.6.6.6.6.6.r r s.s.r r r r 6 o < y y y                               ",
"                  v b b V  ./ 5 r r r % r r r r 6.r 6.r 6.% 6.r s.r r s.r r r 6 $ b >.-.-.                              ",
"                  C C ^  .5.O.5 r r r % r r r r 6.r 6.r 6.% 6.6.6.r r s.r r r 6 $ C r.1.%.                              ",
"                  C C %.q.u.O.5 r r r % r 6.6.6.6.6.6.r 6.6.6.r 6.s.s.r r r r 6 $ H q.' I                               ",
"                  C H %.u.u.O.0 r r r % r 6.r 6.% r r r r % 6.r 6.r % r r r r 6 $ C q.-. .                              ",
"                  C I %.a.a.O.4 r r r % r 6.r 6.% r r r r % 6.6.6.6.6.r r r r 4 $ C a.a.a.                              ",
"                  9 9 s k k u 5 r r r % r 6.6.6.% r r r r % r r 6.r 6.r r r r 0 O w h h l                               ",
"                  $ O O O $ o 0 r r 6.6.6.r r r % r r r r $ r r 6.r 6.r r r r 0 O O O O $                               ",
"                  a s s s d h 4 z z 6.% 6.r r r % r r r r $ r r 6.6.6.6.6.r r 5 s s s s a                               ",
"                  Q I I H C Q 5 z z 6.% 6.r r r % r r r r $ r r r r 6.r 6.r r 4 Q I I I Q                               ",
"                  >.>.>.%.^ Q 0 r r 6.6.6.r r r % r r r r % r r r r 6.r 6.r r 0 >.>.>.>.>.                              ",
"                  i.a.a.q. .' 6.6.6.r % r r r r % r r r r * r r r r 6.6.6.6.6.6.a.a.a.a.u.                              ",
"                  i.a.a.u.5.5.6.r 6.r % r r r r % r r r r $ r r r r $ r r 6.r 6.a.a.a.a.u.                              ",
"                    a.i.a.u.r.6.6.6.r % r r r r % r r r r & r r r r $ r r 6.r 6.i.i.a.i.u.                              ",
"                                                                                                                        ",
"                                                                                                                        ",
"                                                                                                                        ",
"                                                                                                                        ",
"                                                                                                                        ",
"                                                                                                                        ",
"                                                                                                                        ",
"                                                                                                                        ",
"                                                                                                                        ",
"                                                                                                                        ",
"                                                                                                                        ",
"                                                                                                                        ",
"                                                                                                                        "
};
