/* XPM */
static char *_889028861e84906cd9c84fcb069d24cO1K5VuTfjBxUfsid[] = {
/* columns rows colors chars-per-pixel */
"17 19 11 1 ",
"  c None",
". c black",
"X c #414141",
"o c #5B597F",
"O c #DC5D00",
"+ c #9B4241",
"@ c #FAFF04",
"# c #D9C142",
"$ c #DBC07F",
"% c #9C9ABE",
"& c white",
/* pixels */
"                 ",
"  .           .  ",
" .&   .....   &. ",
" .&...OOOOO...&. ",
" .$&&#OOOOO#&&$. ",
"  .$$##@@@##$$.  ",
"   ..OOOOOOO..   ",
"    .O.....O.    ",
"    .+O@.@O+.    ",
"    .++O.O++.    ",
"   .%.+O.O+...   ",
"   .X......OO.   ",
"   .o..oo.O++O.  ",
"   .o%&.o.+%.+.  ",
"    .&%&..+..+.  ",
"     .&%&..++.   ",
"      .&&. ..    ",
"       ...       ",
"                 "
};
