/* XPM */
static char *a076fb7eba1b4229f06b8326ef0228d9iziPGs7C3WzJzrVJ[] = {
/* columns rows colors chars-per-pixel */
"32 32 8 1 ",
"  c None",
". c #2F283A",
"X c #3F3656",
"o c #425B79",
"O c #803A46",
"+ c #B25D4D",
"@ c #679189",
"# c #418EB0",
/* pixels */
"                                ",
"                                ",
"                                ",
"                                ",
"                                ",
"           ++     ++            ",
"      ### #++ ### ++# ###       ",
"      ###@#++@###@++#@###@      ",
"      ###@#++@###@++#@###@      ",
"      oooXo++XoooX++oXooo@      ",
"      ###.o++.ooo.++o.###       ",
"      ###.X++.XXX.++X.###@      ",
"      ###.X++O++++++X.###@      ",
"      ooX..++XOOOO++..Xoo@      ",
"      ###..++.....++..###       ",
"      ###..OOO++++OO..###@      ",
"      ###..OOXOOOOOO..###@      ",
"      ooX..OO.....OO..Xoo@      ",
"      ###..XOXOOOOOX..###       ",
"      ###..XXXXXXXXX..###@      ",
"      ###...X.....X...###@      ",
"      ooX.............Xoo@      ",
"      ###X###X###X###X###       ",
"      ###@###@###@###@###@      ",
"      ###@###@###@###@###@      ",
"      ooo@ooo@ooo@ooo@ooo@      ",
"                                ",
"                                ",
"                                ",
"                                ",
"                                ",
"                                "
};
