/* XPM */
static char *_6d9a00f087b4735f40d478f61ca9aa7B23ulp2MlGDtSj2x[] = {
/* columns rows colors chars-per-pixel */
"32 32 5 1 ",
"  c #A89357",
". c #9A844B",
"X c #8E7A42",
"o c #7D6C39",
"O c white",
/* pixels */
" ..X .o . ...oo.XX   .oo.X   Xo.",
"..XXXoo     ..XXoo. .oo .XX .X  ",
" .X  ..X   .oo....ooX    ..X.o  ",
"oo.     .Xooo.   ..XX.     .ooXX",
".Xo.  XXX..o.   .....o    ..X  .",
"..Xoooo....X.      ..o.   .X.   ",
" .oX..o . ..o.   ...X.XXoXXoooo.",
"X.oX .X    ..X.oXoXX ..XX .X...o",
".Xo.  X     .Xo....o  .o   o  ..",
".XXXoo..  .oo.X  ..ooooX. .X  ..",
".X...oXX.oo...X.  . o. .ooo.  . ",
".X ...Xoo.  . .ooXX.o . ..oXX  .",
"X.   .o..o.  .X...XXo  ..XX..oXX",
".ooXXoo  .XXoX. ....X  .XX. .X..",
"o....XooXX..oo    ..X   o  ..X..",
"  . XX. . ...oo  ...o. .X   ..XX",
"   .o    . .XXX.   .oXXoo.   .X.",
"XooXo.    .Xo.XX.ooXX...ooXXooXo",
".. ..XXo.XX. ..Xoo . .....Xo...X",
". . ...oo.  .. ..X.     ..Xo..XX",
"   .....o     ...XoXX  ...XX oX.",
"    .  .XXoX   ..o...XXXo.X.oo. ",
"  .. XX X...XX  .o    ..Xo...XX ",
"   .XX.o.  ..X..o.   ....X . .oo",
"oooo. .o    ..ooXX     .oX   ..X",
" ..Xo  X.    o...XX  .oo .XX  X ",
"ooXXoXXXXoo. X  ...X.X. . .X..X.",
"o...Xo....ooX.    .oo.X   ..oXXX",
"X . .X  ...X.o.  .oo...XX  .X ..",
"X  ..X   .X...oXXX.   ..X.ooX  .",
".     X.ooXX..X..X   ....X...XXo",
"Xoo  ..o....oo...X     .o.  ..oo"
};
