/* XPM */
static char *_9466_18560ac156e9a19e6219eabd81a0ff95cc78b5f9c8182161b80b97844a43a0a1[] = {
/* columns rows colors chars-per-pixel */
"64 64 256 2 ",
"   c #0C0B0B",
".  c #090806",
"X  c #180D09",
"o  c #0B140D",
"O  c #17150B",
"+  c #0D1413",
"@  c #0C1B14",
"#  c #0D1C1A",
"$  c #0C1419",
"%  c #131C14",
"&  c #141C1B",
"*  c #181716",
"=  c #120D15",
"-  c #27170C",
";  c #371706",
":  c #251B13",
">  c #2B1D13",
",  c #261917",
"<  c #341D14",
"1  c #300D08",
"2  c #0E2319",
"3  c #14221C",
"4  c #1B231D",
"5  c #172719",
"6  c #1A2E15",
"7  c #36250C",
"8  c #2D2115",
"9  c #27261B",
"0  c #332415",
"q  c #342519",
"w  c #39251A",
"e  c #352A1B",
"r  c #3C2B1B",
"t  c #392815",
"y  c #3D311D",
"u  c #363318",
"i  c #2C2F16",
"p  c #171B22",
"a  c #152422",
"s  c #1B2423",
"d  c #1C2A24",
"f  c #1D2B2A",
"g  c #192827",
"h  c #1A3225",
"j  c #1E2B33",
"k  c #14302B",
"l  c #232523",
"z  c #232B24",
"x  c #232C2B",
"c  c #282827",
"v  c #382B23",
"b  c #24332C",
"n  c #293628",
"m  c #383527",
"M  c #2A3433",
"N  c #2B3B34",
"B  c #2D3C3A",
"V  c #253735",
"C  c #323C34",
"Z  c #313E3A",
"A  c #383734",
"S  c #2A2D34",
"D  c #301A24",
"F  c #4A1A0E",
"G  c #472507",
"H  c #552A0B",
"J  c #422D1D",
"K  c #462814",
"L  c #44321E",
"P  c #4A361B",
"I  c #573717",
"U  c #552E14",
"Y  c #67370A",
"T  c #783508",
"R  c #702E11",
"E  c #422E21",
"W  c #482D29",
"Q  c #443322",
"!  c #4A3623",
"~  c #4D3A24",
"^  c #4B3929",
"/  c #533C24",
"(  c #523E2A",
")  c #573724",
"_  c #4F3933",
"`  c #753927",
"'  c #344427",
"]  c #2B4538",
"[  c #33433C",
"{  c #3C4C3D",
"}  c #394639",
"|  c #39573A",
" . c #314E2A",
".. c #2F431E",
"X. c #514D1B",
"o. c #724C15",
"O. c #55422A",
"+. c #594428",
"@. c #474738",
"#. c #574934",
"$. c #4F5531",
"%. c #70512F",
"&. c #546830",
"*. c #6A7230",
"=. c #586E19",
"-. c #303D44",
";. c #1C3440",
":. c #2C4742",
">. c #344442",
",. c #3B4542",
"<. c #3C4B43",
"1. c #394949",
"2. c #3A5349",
"3. c #3D5452",
"4. c #334F4F",
"5. c #3F6343",
"6. c #474A45",
"7. c #4C5A4C",
"8. c #455549",
"9. c #565848",
"0. c #4B5D5B",
"q. c #465855",
"w. c #565D54",
"e. c #4F4C4B",
"r. c #695246",
"t. c #4B654A",
"y. c #54644C",
"u. c #4A6459",
"i. c #53645B",
"p. c #576757",
"a. c #597458",
"s. c #67664B",
"d. c #656A58",
"f. c #717053",
"g. c #4B5E63",
"h. c #4A6362",
"j. c #536562",
"k. c #556A64",
"l. c #5B6B64",
"z. c #5A6B69",
"x. c #5B7469",
"c. c #5B7774",
"v. c #506E6B",
"b. c #676C65",
"n. c #6B7B6C",
"m. c #677667",
"M. c #757969",
"N. c #697B75",
"B. c #7A7E77",
"V. c #87340D",
"C. c #913B20",
"Z. c #8D4F10",
"A. c #976A14",
"S. c #AA6F18",
"D. c #8B522F",
"F. c #8F722F",
"G. c #A8742B",
"H. c #A45017",
"J. c #8D7250",
"K. c #98745C",
"L. c #D87241",
"P. c #70873B",
"I. c #6C8D54",
"U. c #6B836C",
"Y. c #778367",
"T. c #6D8479",
"R. c #778779",
"E. c #75966E",
"W. c #B2892F",
"Q. c #9A8832",
"!. c #C9952C",
"~. c #CEA73B",
"^. c #968A4D",
"/. c #AD9351",
"(. c #878769",
"). c #858978",
"_. c #899479",
"`. c #97967A",
"'. c #958E6E",
"]. c #A39A7D",
"[. c #A89A78",
"{. c #B69A76",
"}. c #A69268",
"|. c #90A876",
" X c #AAA479",
".X c #B8A67B",
"XX c #B0AE70",
"oX c #A9A64C",
"OX c #CFAC49",
"+X c #C8B17C",
"@X c #CC9E46",
"#X c #DEC359",
"$X c #799585",
"%X c #758B84",
"&X c #7CA199",
"*X c #878D82",
"=X c #899684",
"-X c #979884",
";X c #8D978C",
":X c #A49C83",
">X c #B39C83",
",X c #99A38B",
"<X c #9AB48C",
"1X c #89A498",
"2X c #99A895",
"3X c #9AB998",
"4X c #8BAA8E",
"5X c #AAA686",
"6X c #B7A988",
"7X c #BAB48A",
"8X c #B5AE94",
"9X c #A7BB99",
"0X c #B7B495",
"qX c #A9AC93",
"wX c #91B4A9",
"eX c #A6BCA5",
"rX c #A0BFB9",
"tX c #C8B48A",
"yX c #D9B989",
"uX c #C7BA95",
"iX c #D4BC94",
"pX c #C5AD87",
"aX c #E4BF92",
"sX c #A9C79C",
"dX c #B5C697",
"fX c #A6C5A8",
"gX c #B8C9A9",
"hX c #B6D6AB",
"jX c #A9C9B4",
"kX c #BAD4BA",
"lX c #B3CFB6",
"zX c #BBE2B2",
"xX c #8AC6BC",
"cX c #DBC597",
"vX c #CEC795",
"bX c #E2C496",
"nX c #E5C18D",
"mX c #D6C4A5",
"MX c #C7D6AA",
"NX c #C8DAB8",
"BX c #CED3B5",
"VX c #E5D1AA",
"CX c #D8E7B9",
"ZX c #C6E6B3",
"AX c #B6D7C5",
"SX c #BEE1C9",
"DX c #C5DDC6",
"FX c #CFDBCB",
"GX c #C9E5C8",
"HX c #D8E6C6",
"JX c #D7EAD6",
"KX c #D3EDD1",
"LX c #E7F3CA",
"PX c #E9F1D5",
"IX c #EDF7E6",
"UX c #DFF0E0",
/* pixels */
"+ $ = $ # + + + p $ p & & 3 & p p s s s l c f s l c n z g s f p p & s g x x x j f x f x f x d d x g x 5 4 d d 9 s s g 4 4 a & s ",
"$ p p p p p p p a a s s j j V B C C B S M Z @.Z ,.-.Z } ,.6.Z C ,.} ,.2.6.1.,.>.-.B B B C ] ] ] B N N N b n b M M N b b x z s s ",
"+ # s j l p j j j S N ,.,.<.6.,.e.6.6.9.9.w.p.d.e.q.7.q.0.i.w.7.0.q.q.q.g.3.q.3.3.4.1.{ ,.{ <.{ } [ [ ] Z N N C [ Z N N M b z s ",
"& p j j j j j j -.-.1.,.6.9.w.9.d.p.y.i.h.g.0.y.w.w.w.j.j.z.z.k.j.0.h.0.3.q.q.q.q.q.2.<.<.{ { { { } [ [ >.Z N [ [ [ B N N b x 4 ",
"$ p V -.V B B V ;.-.-.V B <.q.i.g.u.h.h.p.d.s.w.i.i.j.i.k.z.z.v.h.i.h.0.g.0.3.u.q.q.8.2.6.{ { @.{ { ] ,.>.[ B [ >.>.B B N V x s ",
"4 x V 1.1.1.1.-.,.>.B [ 8.w.w.k.g.g.h.g.k.l.k.h.0.0.0.g.v.z.z.j.j.h.h.u.q.g.0.g.q.7.8.6.{ { { { <.>.>.,.>.[ ] [ >.>.>.B B N x s ",
"s j -.1.q.e.-.1.6.d.y.9.s.M.b.j.w.j.j.l.l.j.q.9.0.g.j.l.z.z.k.k.k.j.k.z.j.i.u.0.i.i.u.7.8.2.6.1.1.<.1.1.>.[ >.[ [ >.>.Z Z N x s ",
"j >.3.p.b.f.r.s.f.M.Y.M.J.b.j.z.z.j.l.b.l.i.u.0.0.i.l.m.m.z.x.N.m.z.k.k.j.k.k.v.i.k.i.i.7.8.2.3.3.2.1.6.2.{ 2.1.B Z >.Z Z B S s ",
"S -.0.B.M.M.b.M.f.M.R.%XN.c.N.N.B.n.b.z.l.l.p.b.d.m.N.N.%XN.N.N.N.N.c.c.m.m.n.M.m.l.p.p.i.0.q.3.3.3.4.6.6.| >.,.[ -.-.Z Z B S s ",
"-.-.e.N.N.N.M.M.U.R.)._.=X,X,X).B.N.b.b.m.d.b.n.n.U.T.R.N.T.T.%XT.N.N.N.R.R.*XR.N.m.m.l.i.u.7.8.q.3.1.1.,.1.:.>.} Z ,.A C Z x s ",
"B -.g.z.N.N.=X-X[.].,XqX0X8X-X*XB.N.b.b.m.m.m.U.R.T.%X).%XR.%XN.R.R.R.).)._.R.%XT.N.m.l.p.p.y.8.q.3.6.>.[ 1.] #.#.A A C [ Z M s ",
"Z e.z.N.N.%X-X7XuXcXcXvXgX,X*X*XB.N.M.b.n.n.n.N.R.*X;X2X-X-X).%X).*X)._._._.=XR.R.N.m.a.y.y.i.7.<.6.1.,.1.-.%.%.G O O M :.N M l ",
"6.0.b.%X%XB.:XiXBXvXiXiX8X:X-X).).B.M.N.N.N.T.K.`.].5X:X5X`.-X-X`.*X=X=X_.R.=XR.T.m.m.a.y.y.7.7.2.[ 4.<.N X.D.o.Y 8 : m :.A b a ",
"q.z.N.B.%X=X-X8X8XtXvXBXmXiXuX:X-X-X;XB.N.%X*X).>X>X[.[.].[.].`.`.`.*X=X=X_.).U.U.m.a.y.y.$.7.8.{ [ } N 6.A.H.Z.T - * : M Z z & ",
"q.z.N.%X%X;X,X-X5XtX7X0XMXMXuX8X8X8XqX-X*X*X:X:X>X>X6X:X-X-X`.`._.)._.`.=X).R.U.U.m.a.a.y.7.7.8.} >.,.1.+.T Z.Z.R ; % O z z 4 O ",
"e.l.B.2X,X,X2X,X5XpXtXmXmXmXcXtX>X].*X*X*X-X].5X>X5X5X-X`.-X-X-X`.`._.`._.(.R.n.n.U.n.d.p.p.7.7.6.6.>.$.G.Y T T R H   = 8 z & o ",
"w.M.-X5X,XqXqX8XyXcXcXcXcXmX8X5X;X-X).-X-X-X:X[. X5X X`.-X-X-X-X`.'.'.`._.Y.n.m.n.B.M.n.d.y.7.w.q.,.A G.!.H.V.Y R F O O * s O O ",
"s.(.5X6X8XuXuXuXVXmXcXbXVXvX6X>X:X-X*X-X-X>X>X[.].].-X:X`.[. X`. X X'.'._.).Y.Y.m.t.7.7.7.w.9.} ' j o.!.A.Z.V.V.T 1 O = & % O $ ",
"d.K.:X0X8X0XuXmXbXbXbXbXcXcXmXuX8X`.-X].[. X[.:X6X[. X6X6X.X5X>X[.[.].'.).).M.y.e.c S c N } } l * X.G.S.G.V.V.V.R X , , * % + + ",
"f.}.pXuXiXiXiXuXtXtXyXiXyXcXcXiX:X5X7XpX6X6X.XpX7X7X.X+X6X7X6X X:X X].`.(.M.6.x l 4 9 g c l f c _ W.H.W.A.R T T H . O X 9 c p + ",
"J.{.nXnXaXbXiXtX8X7XtXuXuXuX0X6X6X0X6X.XpXpXtX.X.X6X6X[.5X:X].:X.X[.'.d.e.C b d d g & z c 9 4 I S.H.Y Z.V.G T H.Y % O O 4 4 $   ",
"J.}.yXaXyXiXiXuXtXpXtXvXiXuX0X8X7X7X5X5XpX+X+X X6X{.{..X6XK.K.K.f.9.A c l d s l g b b S S 9 z I H.Z.F Z.F G S.A.Z.H - 8 3 @ + = ",
"K.].yXyXyXaXyXyXpXyXbXyXiXiX6X7X6X6XpX6X X[.{..XpX{.K.K.J.r._ S p l c c c z c c c c v s A M ;.O.S.V.H o.Y o.!.A.A.Y t 8 % o X + ",
"b.K.pXyXyX+X+XyXaXyXnXpXtXtX6X7X.X}.K.^.'.5X{.K.D.D.r.W S S W W ) ) _ W v l b c c M c f 4 } 4./.S.V.F F.!.W.!.S.Z.Y L < * , O = ",
"d.(.:X5X7XyXvXcXuXtX+XyXyXpX5X0X(.G.{.{.}.K.D.R C.r.C.` R ` V.V.V.R ) W q c s & & c c z l V Y.!.S.V.< Q.~.OXOXG.o.Q K 8 % - : . ",
"d.M.-X5X5XqX7XuXpX6X7XpXpX6X7X}.s.{.pXJ.%.U 1 F D ` L.L.H.` ) ) W -.S s p & * g v D S v A 6.XX#XG.T < ^.~.~.~.~.=.P K 7 % > & o ",
"b.K.5XqX8X6X8X6X8X0X5X6X5X6X[.(.}.K.r._ Z @ , R R V.` r.w D x c D c v D c c m ( _ r.+.L @.T.+X#XG.o.; Q.~.~.OXOX%.P K : - K O - ",
"b.).,XqX8X8X8X8XqX6X6XpXuX:XJ.w.e.m A @.,   = * D ` R F , p w W W W W A A @.r.r.%.%.%.+.e.<XOX~.Z.Y ; Q.#X!.W.W.F.P I m K F 1 < ",
"d.(.:X8X8X8X5X6XpXpXpX5XM.^ } c c A C m % o & = D F ` K.V.C.` / _ @.e.w.r.f.J.%.%.+.%.) R.OX!.S.Y R ; %.OXW./.OXF.t U I K 0 U ; ",
"d.)._.(.(.].[.{.'.M.).Y.@.m m ' n A 9.n . X = & = D F ` ` D.s.d.s.d.9.e.9.r.#.#.#.9.e.w.5XW.Q.Y K H t @.@XOX~.OX~.*.L X.r.' e O ",
", n ] b z N } n c x { t.p.@.7.@.c m 4 3 d * o + = $ M ! < v W A M v : * $ # & * $ ;.4.E.F.A.o.X - > < K oXOXW.~.W./.#.X.y.f.9.n ",
"$ & x j # # 3 & $ + & % B [ N 5 % $ $ a b g 5 s = = , * , D f * p * l z x s & + 2 U.xX|.Z.D.K * + * ; H A.~.Q.Q.Z.A.%.~ % e 7.} ",
"$ s a $ a f g # @ 4 d 3 a g b d p & 5  .&. .% % $ 4 } } 9 N -.b c W 9.y.8.y.t.x.%X1XGX9X%.H K - + O u %.D.A.A.Z.Y X.o.I : * m y.",
"d d 3 # 3 a 5 d g b ,.h 2 5 m. .5 ' y.5.|  .| 5.[ u.T.a.t.] 8.p.a.d.a.a.n.N.wXjX3XgXHXZXf.7   X ; u s.J.o.o.D.o.H G G G v q * y.",
"5 b N ] N n 5 5 d 5 5.t.] d.R.2.8.@.] ]  .2 h 5.a.U.E.I.$XR.U.p.7.y.f.R.$X1XlXkXCXCXCXMX^.G.s.$.a.U.|.XX*.Z.T t H - < : 9 m 9 v ",
"o @ 5 b b h { x.y.U.=X,X;X$X2.N n h 5 3 2 2 d h 6 ] 5. .a.wX2XE.M.U.Y.|.9XNXKXR.BXLXCXHXCXBXZXsX^.W.Q.dXJ.o.I D.Y O * i 4 * : i ",
"+ # # 5 h d N 8.E.).`.M.u.n k g 2 a k % % 6 @ 5 k k k ] ] u.wXfXqX,X<XgXHXM.9.d.2XPXCXMXPXBX+X/.A.Z.T ^._.^.A.F.%.O.i i s O i ! ",
"@ 5 2 # 3 d 2 @ [ 9 _ ' 6 5 9 2 2 # # @ % v 9 2 2 2 2 U.E. .U.&XhXGXDXGXhXdX<X3XgXPXBXFXPXCX/.S.Z.o.< 9.CX.X5XdXhXsXY.x.u.@.t.a.",
"@ 3 3 # # # 3 5 3 S A d 3 @ @ 2 2 @ # 3 z c 9 h ] V T.E.P.I.I.3XNXfX3XsXhXCXLXCXPXCXvXPXPXHX5X/.D.I < u CXLXHXZXZXZXsX<X<X3XE.9.",
"# # # # @ @ $ 3 d h b 4 5 V j a 5 V ] g # k V 2.2.&X3X|.=X9XZXhXdXzXZXCXLXLXHXIXCXBXUXPXLXIXNX7X}.$.w +.0XzXZXvXXX_. XW.X.f._.H ",
"3 3 5 h 5 3 + + 2 2 ] p.s.&.X.v ] :.k $ s M C p.*XrX-XBXHXCXsXZXZXLXPXIXPXHXUXFX`.lXIXPXUXdX+.J.zX4Xm.G.F.<XXXG.=.F.G.Z.G G U 1 ",
"# % s b x d d f k | -XU.7.a.I.m.u.t.a.T.$X=X$X1XeXAXBXJXNXfXdXZXZXLXPXPXHXKXGXJXeXNXPXIXUXgXsXjXfX3X|.oXQ.|.Q.%.o.A.X.U G P ; X ",
"% & s a h h b ] 5.a.I.| n 2.v.v.1XlXkXwX&X$X&X&XeXNXCXGXgXsXMXMXVXLXPXIXUXGXJXUXJXUXMXeXSXGX9X`.9XhXhX}.F.^.&.$.7 < H G - U 1 X ",
"q b b k ] ] h ] u.5.h ] <.:.c.&XlXJXGXkXrXwXeXlXMXkXfXfXfXhXCXCXLXKXSXKXJXUXUXIXDXlXT.;.k.4XhXhXDX4X7.<XXX|.'.X.6 - - X X.Z.H ; ",
"1 8 N h h 6  .t.U.] ] ] a.E.|.|.|.|.|.I.3XfX3X0XqX4XfXsXkXGXGXJXKXSXSXDXGXDXkX;X;X1X*X7.D.C.D.).y.O f.dXsX^.#.H u O.$.L Y Y G - ",
"9 C <.] N } 2.| | :.] v.E.P.P.=.P.P.&.P.I.3X1XfXfXfXGXGXSXSXFXSXKXAXSXjXR.9.n 9 w % r.r.o.V.T o.7 L o.+.( P f.(.#.c c i - G - X ",
"h h ] | h 6 ] u.a.h.U.I.=.=.=...P.P.&.P.P.a.1XeXjXAXlXAXAXjXjXAXAXlX|.$.O.q * , % * & |.F.o.X.X.K J i Q 0 - ; J.(.Q.I O = . . X ",
"d j k 4.3.3.3.u.v.&X4X$.X.=.=. .=.X.X.=.&.&.a.I.E.wXrXxXrXjXjXjXfX_.s.O.t q - * * X > s.&.i 9 - 0 F t t : + - t *.X.U F G * . . ",
"V 1.2.] u.c.c.T.$X3Xy.6 ' ' u ..' n  .$. .&. ...' p.t.u.x.U.1XfXY.s.@.^ r O * i c i @.u 7 - 8 - < - > : X O * * ) K ; 1 X X     ",
"B 1.3.3.j.j.i.x.0.q.x & * 9 h 5 c & i n n i n z i ' ' { u.m.R.E.$.$.m m 9 z @.} 9 9 ' 8 8 < - X o X O     o   . X - O X     . . ",
"% d V B C 4 5 o   o + o o % 5 2 5 % 5 5 6 z n n C Z 2.u.v.x.x.w.C m 9 z 9 l z %     & A * O o o     . .   =     . .   O O . . . ",
"w q q q e 0 r e m r 0 u u m e e r J J m y P P P O.O.#.@.^ y Q P t e u e e 8 0 e t r e r L r Q ! y Q L y L r w t r u t r L y t 7 ",
"t 7 0 8 0 7 t e w J Q r t r E r r r y r v L r t r r r t m J t 0 J t t 0 t m J J ! t ! v w t L r r r r r J w t t w w w q t w q w ",
"E J r t Q r r v r e q v y q q w 8 0 0 e r r t w t t y r w t r J t Q v ^ Q Q Q Q P Q r L r e t y r J J Q Q r r r J J J L Q r r L ",
"! m L y m J t r e J y y Q r r J e r r r r y v r r v Q y L Q ~ ~ Q Q Q ^ Q r Q Q ~ ~ ~ ~ O./ #.) / O.O.+.I P P P P / P Q ! Q Q Q ",
"! P L J J J Q r Q L Q Q L Q ! L Q Q P ~ ! Q ! ! Q ! Q L / / O.( ~ / O.P ~ / ~ O.^ ~ ~ O.~ / ) O.O.~ P ~ ( O.#.) +./ / O.~ P P ~ ",
") ( / P ~ / +./ +.O.O.+.+.+./ / ) / / / +.+.+.+.( ^ ( ( ^ ! Q ^ O.P P / ~ / / / O./ / ) / P L t J J L Q ) P P / ) P / / / ~ ~ ~ ",
"t t r e e r r r Q L Q ^ ^ ^ ~ / ! ! ^ ! ~ / ! ! / I / / / / P / ~ ^ ! ! ! ^ ^ ( ! ( O.O.~ L ^ ~ L ! O.( / O./ / ^ ! Q Q P L r t ",
"9 > : : > : 8 8 > : > > 8 0 8 0 q v v v e e w q w t r v r Q v L Q m J r r t r r w J J ! E r r r Q Q ! E ^ ^ Q E E v Q Q m r e e ",
"9 , 9 : : , : > : : : - : : , : O : : : - O O - : O : , , : > 8 t 0 0 > > 0 t 0 0 t < < r w 0 0 < > > - - e v r 8 0 8 e 0 > > 8 ",
"> 8 8 > - > 8 > : , : : : : : > , 8 8 > > > - > > , 8 e 0 0 0 w w w t 0 0 w J r W L J L W E L W P ! J r L ^ ^ L ! v r r e 0 0 q ",
"0 w 0 7 0 w e 0 0 q 0 q 8 8 8 8 8 0 w e r r t q q < r r J J J J J E E r r r J J J J J J J K P ) Q ( ( / W K Q J J J v E t q 0 0 ",
"r t t q r r w 0 q q < 8 0 > 8 > - > > > > 8 0 0 > > t q w t w w t t w r w r t t L J J J L J J J ^ ^ W J K v ! W J J ~ ~ Q E v E ",
"0 0 q t 0 > < 0 0 > > > < > , > - > > > > > > 8 > > > 0 0 t w w t 0 7 < 0 t w w E L ! ! P L ! J ^ ^ ~ ~ ! P J L J L J J r r r t "
};
