/* XPM */
static char *_2994_2b93f382ae832ddd1ac7ad959d5959c98ada285d6eeb7c2d563c60261151f0ee[] = {
/* columns rows colors chars-per-pixel */
"64 64 256 2 ",
"   c #05060B",
".  c #0A060D",
"X  c #050A0B",
"o  c #0B090E",
"O  c #0A0605",
"+  c #12060B",
"@  c #120B0D",
"#  c #180A0A",
"$  c #1A140E",
"%  c #0B0712",
"&  c #040B12",
"*  c #0D0B12",
"=  c #0D0C1A",
"-  c #050717",
";  c #120D14",
":  c #1A0E14",
">  c #130E1A",
",  c #1A0E1A",
"<  c #110612",
"1  c #0E1115",
"2  c #0C111A",
"3  c #141115",
"4  c #1B1315",
"5  c #14121A",
"6  c #1B141B",
"7  c #1C191D",
"8  c #191916",
"9  c #0C120C",
"0  c #27180B",
"q  c #391F0E",
"w  c #220C16",
"e  c #221415",
"r  c #221B15",
"t  c #2D1C14",
"y  c #22161C",
"u  c #241A1C",
"i  c #2A1B1C",
"p  c #2B161B",
"a  c #321E14",
"s  c #371A1A",
"d  c #3C230E",
"f  c #37230C",
"g  c #2C231B",
"h  c #292219",
"j  c #352315",
"k  c #3B2515",
"l  c #3C2A15",
"z  c #34231B",
"x  c #3B251C",
"c  c #352A1D",
"v  c #3C2B1C",
"b  c #332B13",
"n  c #3B3219",
"m  c #2C200A",
"M  c #130E21",
"N  c #141421",
"B  c #1B1523",
"V  c #1D1A22",
"C  c #191A29",
"Z  c #0B0E21",
"A  c #221723",
"S  c #241B23",
"D  c #2B1C24",
"F  c #241D2B",
"G  c #2B1C2A",
"H  c #2B1624",
"J  c #321D23",
"K  c #381B2A",
"L  c #2C1E32",
"P  c #2C2124",
"I  c #2C232A",
"U  c #2D292C",
"Y  c #282427",
"T  c #332324",
"R  c #3B2424",
"E  c #352B25",
"W  c #3C2B24",
"Q  c #34242B",
"!  c #3B252B",
"~  c #34292B",
"^  c #3C2A2C",
"/  c #3D3228",
"(  c #2E2533",
")  c #3B2C32",
"_  c #362832",
"`  c #3D3134",
"'  c #36333A",
"]  c #1A2020",
"[  c #48270A",
"{  c #53290B",
"}  c #432613",
"|  c #452A15",
" . c #4D2D15",
".. c #432C1B",
"X. c #48291A",
"o. c #562B18",
"O. c #44321C",
"+. c #4C321D",
"@. c #4C3719",
"#. c #52341B",
"$. c #553B1D",
"%. c #5C3A1B",
"&. c #593517",
"*. c #53350E",
"=. c #66391A",
"-. c #663413",
";. c #4A1B22",
":. c #432B24",
">. c #4B2C23",
",. c #432C2C",
"<. c #452829",
"1. c #522D27",
"2. c #453323",
"3. c #4B3323",
"4. c #4D3923",
"5. c #46332C",
"6. c #4B332C",
"7. c #4D3B2C",
"8. c #473B2F",
"9. c #513522",
"0. c #543C24",
"q. c #5B3C23",
"w. c #53332B",
"e. c #543C2B",
"r. c #5B3D2B",
"t. c #5D3426",
"y. c #422D33",
"u. c #4A2D36",
"i. c #453232",
"p. c #4B3434",
"a. c #4A3838",
"s. c #523C34",
"d. c #5A3A34",
"f. c #523C39",
"g. c #563636",
"h. c #633B22",
"j. c #673B29",
"k. c #743D27",
"l. c #643C36",
"z. c #7F3F33",
"x. c #4E1F0D",
"c. c #5D411A",
"v. c #69451B",
"b. c #77481C",
"n. c #5B4224",
"m. c #5A432C",
"M. c #554329",
"N. c #5B4333",
"B. c #54423C",
"V. c #5B433B",
"C. c #574638",
"Z. c #4E412E",
"A. c #644323",
"S. c #6B4A25",
"D. c #63442B",
"F. c #6B4728",
"G. c #734525",
"H. c #754B23",
"J. c #734D2B",
"K. c #7B4928",
"L. c #7A5228",
"P. c #624533",
"I. c #644B3C",
"U. c #694936",
"Y. c #774A38",
"T. c #6A533E",
"R. c #785639",
"E. c #6C522F",
"W. c #4F3C41",
"Q. c #5A4844",
"!. c #534B46",
"~. c #674C44",
"^. c #6C5343",
"/. c #6A5548",
"(. c #7C5C45",
"). c #745747",
"_. c #6F5851",
"`. c #7A634A",
"'. c #7C6556",
"]. c #6F6355",
"[. c #7A6369",
"{. c #843B1B",
"}. c #92531B",
"|. c #89462B",
" X c #934926",
".X c #845629",
"XX c #965729",
"oX c #894633",
"OX c #845837",
"+X c #92583D",
"@X c #AD5A2D",
"#X c #8B622B",
"$X c #96622A",
"%X c #8A623A",
"&X c #956638",
"*X c #B46934",
"=X c #CB6F2D",
"-X c #DB6C25",
";X c #865C44",
":X c #855648",
">X c #876447",
",X c #956B47",
"<X c #9A744C",
"1X c #866B57",
"2X c #9A7755",
"3X c #8A6F55",
"4X c #A4774C",
"5X c #A47B54",
"6X c #A87A57",
"7X c #B17E53",
"8X c #8F7A6A",
"9X c #AA8458",
"0X c #B68B5C",
"qX c #BC925C",
"wX c #B4874D",
"eX c #9C8B79",
"rX c #AA8765",
"tX c #BA9468",
"yX c #A78D76",
"uX c #B08E6C",
"iX c #9F804A",
"pX c #C58A4A",
"aX c #C89758",
"sX c #D59856",
"dX c #D7A15F",
"fX c #C89766",
"gX c #D69B64",
"hX c #C59D73",
"jX c #C9926F",
"kX c #D9A769",
"lX c #C8A577",
"zX c #D6AA77",
"xX c #DCB577",
"cX c #D1AB67",
"vX c #E7B76C",
"bX c #E4B778",
"nX c #E5AC69",
"mX c #F0C679",
"MX c #B8A586",
"NX c #B9AA99",
"BX c #B19D84",
"VX c #C5B499",
"CX c #C8B08C",
"ZX c #D8BC9C",
"AX c #DAC193",
"SX c #E9C387",
"DX c #F3C382",
"FX c #EACB97",
"GX c #F9CE8A",
"HX c #DCCBB0",
"JX c #EED3A8",
"KX c #FAE5AB",
"LX c #F2E2B7",
"PX c #EADEC6",
"IX c #FDF9D9",
"UX c #F6ECC8",
/* pixels */
"  o   o o . . X . . X o o o o . O * X X O o o @ o o o o o o   o o . o o o o o o o o o X o o o o   @ & h j j t 8 0 h q j a h d { ",
"    o o o X X . o % o o o X X . X . % * * * * 1 ; ; ; * 1 % o o ; o o o o o o o X o o * o o o o o @ % g j t t 0 4 $ q a 0 3 l { ",
"X o o * * * o * * * * * * * % % 1 % , o o > ; * ; < * * * 3 ; * % ; o % o * < * o o o o % o ; ; ; ; o g z t a f f q x.{ [ } [ { ",
"  o o * * 3 1 1 * 1 * * * * * * @ ; % ; ; o < o * o o o ; ; * * ; o * o % o % * 3 * ; ; 3 6 6 3 * @ o h z r d } d } X.z m u [ o.",
"  o o * * 1 o * 1 * * * * * * * ; 6 * % ; o * o % * % % ; 3 3 * ; ; ; % o o % * * o ; 3 4 3 ; @ * o o t h t q d [ [ } 0 { }  .*.",
"    * o o * * * * * * o o o o X = 5 o 1 & X * % o o . o % * * ; * * * * ; ; * ; * * * * % * < ; * < * g b t } d x +.{ [ b 7 } { ",
"o o o * * 1 * * * o o * o % o % - # # e @ : : 2 % o o . o % ; ; o % % ; * ; ; 3 ; * ; % o % * ; o o % g l k | l f a l %.q $ { l ",
"O o % % o * * o * o & o * X o * o s w.R 0 1.s X ; * % o o o * % * ; * ; * * ; * ; * * * 3 ; % % ; ; % g | } X.x  .[ p z  .$ }  .",
"X . - & + + 1 Z # & % < . % . @ , y t.t.e e t - o o % o o % % * * o ; * 3 * * o @ 3 ; @ ; 5 ; ; # 3 o g } +.k r { +.[ k h m } *.",
"  O 3 ; @ * 1 O o 9 o . % & & 2 o o XX*X. ; - # ; ; ; o * * o ; * o ; % * * * 3 3 o o ; 3 ; : , 4 ; o z ..| x z o.l $.} 0  .[ { ",
"O   X o 2 2 % 4 - % o ;   X % ; & u }.A.* @ t w ; 3 ; o 3 ; . * * % * ; ; ; ; ; ; ; ; 3 4 ; ; 6 ; 6 4 t v l 2.v [ b  .| o.&. .-.",
"X % * & X = N & - o * X ; o O < . # y 7 3 OX=Xo.6 ; * % * ; o * * * * ; 3 3 ; ; ; ; 3 ; ; 4 3 ; y 6 3 g 2.d | | l | }  .=.[ [ -.",
"X < * * + * & e o.$ I ; X & = % - # < = K.-X XX.D > # % o ; ; ; ; * ; ; 3 ; ; @ @ ; 3 ; @ 3 3 @ ; ;   z 2.| #.X./ X. .=.{ v { -.",
"  < o o 6 % # .X).9 5 5 1 % * o @ . % s @Xo.<.<.7 ; 3 ; % * * % * % ; * 3 5 ; ; ; 4 ; o % ; * * ; 5 o h ..X.3...a h o.*.} z { &.",
"o * 1 9 % 2 ..@Xp + & . ; o @ @ & A >.-.x s a ! 3 % 5 , * * * % ; % * 3 6 6 8 ; 6 3 ; ; ; * 1 3 ; ; 9 j W v v v j v +. .3.r &.=.",
"O 1 * 3 5 - ! =.R w 3 B ; X * - t XX|.w.p B e r o * 3 * * 3 3 5 3 * 3 ; 6 7 3 3 5 3 5 5 3 3 5 * 3 e y z c c c c b  .W b { 8 o.*.",
"9 * 3 * 3 5 S S r.t y 7 % > & r =Xk.x x 5 7 7 : ; 7 4 : 3 5 3 @ * > * 3 3 7 6 6 4 3 ; 3 7 3 ; 3 4 8 e z l x z a j x g d | 7 *.o.",
"o ; 7 5 3 7 I I W e > 5 7 3 1 a.1.s 6 N 4 ; < = 3 4 y y 6 > 1 3 4 = * 3 4 A 6 u 6 y 6 6 4 5 ; 6 6 i 4 z O...z v j t j g 0 $ | t.",
"; ; 5 5 7 S I I I s e C 6 O 4 @ * 3 5 N O o   1 3 o u u 6 > * 1 % % B 8 4 D e 4 y i e 7 6 ; 4 7 S i : x O.O.l O.j X.@.b l t f  .",
"* 1 1 3 * o ; 4 ; K.j.H 2 3 6 o * * 5 o * @ 5 p u : e 6 ; * o % ; 5 , ; u T u ~ W R T i i 6 ; @ H e : z ..+.X.} :.#.%.4.#.l  .=.",
"9 3 3 3 4 u E ^ F =.=., & , = * ; ; - + >.-.s j.K p e 3 o o o < ; % % 6 i R ! i.i.W T D u y 4 6 e t z v ..+.t.$.4.0.2.t.-.l %.=.",
"# u Q ~ i.a.y.W S j <.< > % & > % ; B C @X@Xk.-.;.s i 6 ; ; ; > 4 7 S I D 5.s.i.f.y.,.! J D Q _ p.N.7.R 3.0.#.#.z O.c  .A./ G.v.",
"y Q ^ ^ ^ ^ ^ ,.D ^ ) u u o o # V r H C {.-X Xo.s s p y y 6 ; ; ; Y e H D e.e.V.V.f.p.6.<.R 6.w.m.R.E.2.+.3.+.M.2.l q.=.A.j G.v.",
"P ~ Q Q Q Q Q ^ E R 5.6.p   6 C.^.s.1.K 1.@X X1.R J y D J y 5 1 y 4 u G s ).).I.U.U.T.I.P.I.U.P.R.OXE.e.3.0.>.O.F.M.v.G.q.=.b.b.",
"r P T ! ^ ! i.,.y.6.w./.Z.E T.5X>XQ.V.s.a.Y. Xt.w.R i 6 u 6 : * 6 H s B W 4X5X<X,X>XR.>X;XR.R.>X,X%XR.M.+.$.M.c 4.0.v.D.+.0.A.b.",
"S 6 P ^ R a.Q.a.a.a.p.e.N.P.>X1XC.^ E 8.^ ).XXP.1.x i 6 5 5 5 2 6 Q y G s.0X0X9X9X5X4X,X,X<X5X%X;X>XR.e.8.3.3.t.$.q.E.n.v.| K.H.",
"D I ~ y.i.p.s.s.7.a.i.w.g.).^.~.Q.5.` p.p.:X@Xl.<.R D 6 3 3 5 , 7 h 6 p ;X<X6XiX0XqXtX0X9X4X4X<X<XtX<XM.5.7.D.L.q.N.O.| K.v.b.K.",
"S ( i.^ i.i.s.p.a.f.g.Q.d.).~./.'.^._.T.T.;X*XoXw.:.D 6 * 3 4 y D 7 , w.,X,X5X9XtXhX0X0XtX4X<XfXxXcXiXM.v 4.E.F.3. .@.7.h.G..XJ.",
"S Q _ ) p.p.f.B.a.g.C.N.T.^.^.^.'.1X3X3X).,X@XoXoXj.T V = 5 3 5 6 6 y 1X9X2XiXrX2X,X2X<X6X5X2X6XaX0X%X0.7.e.2.c 4.+.l R.L....Xb.",
"S ~ ( a.W.W.W.f.7.Q.~.C.!.!.^.T.T.^.`.1X/.+X X+X|.j.R S C S 7 7 H 7 y 1XtXrXuX3X3X6XrX2X6XrX5X6X6X4X;XN.3.e.N.5.^ F.L.$.q.e..X.X",
"P ) ` a.B.Q.].!.1X1X'.^.(.>X(.R.1X(.(.(.).Y. X|.k.d.y.I Q D 4 4 6 6 y B.rXrXtXuX0XtXtX0X5XrX7X7X9X5X%XN.Z.$.$.$.+.$.R.R.J.w.J..X",
"I Q _ f.8X8XVXPXHXlXtXqXkXsX4X>X'.,X1X1X`.R.@X Xt.l.g.<.~ P N C D 8 G R yXlXlXxXSXxXhXqXqXfXfXkXfXgX4XM.B.Z.4.M.2.S.F.S.v.a #XK.",
"G G y.].NXeXVXIXUXJXSXbXcXgX4X(.`.(.,XrX<X=X*X|.l.t.w.! Q T Q _ S g G Q ^.hXfXcXxXSXgXgXnXpXpXgXgXgX<Xc.Z.e.M.0.n m.t.4.%X3.%XL.",
"V Y ` [.eXeXHXPXUXIXKXGXkXkXaXqXuX4X7XfXsX-X@Xl.w.6.Q ( _ y.! e 3 u C 5 $ 9XfXaXkXbXDXmXaX%X;X:X6X+XN.8.8.:.#.D.r.M.| F.v.&.OXS.",
"S S Q a.].8XlXAXLXIXKXvXvXGXvXmXxXsXwXwXpX=X@Xl.<.) _ ) <.K Q _ T D ^ R ! e.T.(.OX:X1XI.p.W.w.P.:XY.7.6.5.6.n.A.U.E.M.R.n. .K.H.",
"P Q.'.yXMXCXHXUXUXKXmXkXDXnXcXfXsXjXtXzXkXFXJX6X~.u._ f.P.w.<.~ ( S y P _ R p.B.~._.~.f.i.a.u.p.<.:.R 7.0.+.m.0.3.$.%..XS.e.|.v.",
"W.].BXLXVXZXLXJXmXvXkXSXJXSXjXjXjXfXaXSXzXSXMX:Xd.u.u.s.I.w.K B * O 5 _ ( T ) I.>X^.>.<.,.,.i.<.` ) u 2.I.r.n.m.D.0.n.4.S.D.XXb.",
"I s.BXCXlXJXKXxXjX2X5XnXnXvXdXFXxXzXFXFXnX+Xk.j.B.i.D D J J S 5 % 4 ~ s <.,.<.(.~.<.! _ ^ u.p.g.j.D.e.e.3.m.$.9.O.3.J.c.L.r.&XL.",
"g a.p.>XkXbXjX3X>X/.T.wXfXpXsXbXgXzXAXjXOXU.a.W.8.i._ L S 5 5 % 2 C y.T.k.T.l.Y.f.u.) u.:.W 6.e.;XR.>.3.0.N.$.9.M.0.H.J.@.2.,X$X",
"; 6 i ,.g.1X3XrXPXZXzXjX<X;X^.d.g.T.l.<.` ^ <.) _ Q J p 5 3 5 6 e D H ~.,.^ f.l.d.P.^.~.) : * - % 3 O E 7.3.M.7.$.D.U.H.c.[ &XR.",
"o o * 5 ; ; S ` Q.1XyXtX2X(.g.i.<.1.l.l.,.K Q P J G > * 3 ; , , D A @ 3 6 , p._.OX8XI.e G y ; 3 & S > >.M./ 4.S.$.m.J.L.F.q.L.J.",
"X * * 3 > ; ; , = ; e 5.I.(.Y.Y.U.U.k.t.6.y.Q D P u 6 4 S 6 u C ; : 4 7 B : T f.).e.p w G 6 4 5 o : 5 3.m.m.n.9.n.4.P.L.F.E &X$X",
"X o * o * 5 3 < 3 3 3 1 , i R 6.6.:.X.R ^ P w G h 7 e J a.Q 6 % ; % , ; > : e 5.R + @ 6 7 ; 3 * @ # * n 7.F.S.M.M.9.$.^ OXm.&X&X",
"o ; o * * * 1 5 : 6 * - % 2 > ; 5 > > > % * < @   < ; D ) T e 7 5 ; 3 , 6 B 4 Q y 3 7 5 3 ; o . % , % 3.e.%.S.q.l Z.S.$.+.c.&X&X",
"  o * 1 1 1 5 5 5 * * 1 1 * 2 V u 4 4 3 = 1 * o ; 3     + . < ; * * < < ; 7 < 4 ; ; =   o 3 < , 5 + % 3.r.N.O.S.3.E.M.J.c.9.&X&X",
"o o o o % 3 5 1 X o * % ; % * 3 e 4 3 ; 5 ; . ; ; 3 7 5 6 ; ;   % * @   . . o o o o * ; ; e 6 S I g O 9.M.W / n.A.+.2.L.2.%.$X%X",
"3 ; * 3 5 V S 7 * 3 % % ; 6 u 4 2 5 2 % % 3 ; 6 3 ; 5 5 ; o 8 5 3 ; 6 3 * 1 * > e ; ; * < 4 : 6 p p   9.m.3.0.$.4.q.c.t.r.K.$X#X",
"* o * 5 5 6 3 % % o * 3 V S Q L S * 5 7 4 ; * & * o < A e 4 6 5 5   ; * * * * ; ; < % = ; 3 3 7 4 > % 2.D.A.E.0./ 0.@.D.b.H.$X.X",
"X   ; 6 % 3 5 5 3 V u / 5.) D D S T P 5 5 y 4 D J x u A 1 * V ; % % X 1 @ o % % o % M > , y S B 4 S - 9.v...m.O.v.0.2.S.=.J.#X}.",
"* > 5 , F 6 D H W ^ w T ^ U U 8 , V T Q C B L F F 3 < = % % ; ; 3 X 3 % < 6 o 6 8 6 ; 1 7 ; B N 7 7 ; 2.n.q.r.0..X#.P.@.+.4.H.=.",
"h e u h ' 7 3 V 6 * 3 3 # 5 B S S !.8X2X/.u T 5 . u 6 % * 5 7 D K D , = * 5 5 6 D y 3 5 & % = * ; * O :.0.0.0.$.4.7. .l D.O.| >.",
"r   8 ~.d.W E u.t e I V Y G Q.8.Z.A 7.(.F I ^.>.P 8X!.6 B V F 7 7 3 y J ; S i : * 1 3 ;.s t h 3 > o   2.r.>.S.c.v 5.*.e.H.%.q.X.",
"- @ % S `.5.) >.Y _ I % * 5 1 3 + 5 ~ r M M i.>.S E ~ A ; 6 < ; X , : p % o J K H > B K ;.;.w , % ; % O.q.:.F.L.L.A.v.| %.h..Xb.",
"& O 5 # _.!.  4 4 @ i.'.:.g S V N 3 * 8 6 2 - 5 - * % M ; 6 S P I I '.hX>X1Xd.( 4 @ e : N - > * @ = % b $.3. .S.M.@.R.D.b.&.H..X",
"7 4 ; s K.g.S /.NX8.!.p.D 5 5 5 , 3 % > 1 V , 5 S T ~ u.^ ^ a.p.z.1.J.Y.k.oX|.j._ w.Y.:.8 * ; 9 3 = . k %.n.| #.2.b v #.b.%.J.}.",
"k s Q.1X=.~.Q J 5XU.3.8 3 B 5 5 B B 7 6 u :.d.Y 1.U.r.d.g.,.<.R s H p # , J s z Q ! w > % 3 * * * < % x h.4.A.3.%.c.@.v.L.h.E..X",
"c T.`.yX3X3X_.d.I.l.J _ ! 4 Q 6 B e L 6 u _ 5.W i a.^ J T Q ~ 5 , C Y 7 6 5 6 5 > % % * * * * ; * * @ g 3.X.+.+.q.h.M.XXA.c.H.#X",
"@ :...u E T.JXhXbXL.p y.: 8 l.i 8 B , e s y.i.) u D 6 ; ) S 6 , ; o < B I U N % 5 > * * ; * % ; 3 2 & h 2.| &.G.&.g b.H.&.X.S.}.",
"; 6 ~ S o Z.>XT.XXoXp._.C.E <.,.E T 8.G C.MXC.>.V ; 5 > U S B B C B 5 7 V 5 * > = * 3 * * * * 2 5 * o z | +.q.q.h #.*.j M.$.=.$X",
"4 o ~ ~ u W s ~ ~.(.^.MXBXu.^.5X2Xu Q.y ' Q.l.f.Y = B 5 * V F F S Y S 7 5 * * 5 * * * 1 1 3 5 5 5 2 @ l | O.x k j b E &.j &.K.#X",
"4 5 T i.Y C P ` n 7 t T.1X~.l.I.(.f.I N r <.u.:._ F S F 5 7 5 > * 5 > * ; 5 * % * 3 2 * * 3 5 5 > N & U / j q #.^ [ b o.v.$.b.#X",
"u Q ! i.( 1 8 * B , > 8.5.5.P.N.T 6 C ~ y.p.D.` _ I S 5 5 3 1 3 > 5 * 1 5 3 2 5 1 5 3 ; 5 3 = 1 > 5 1 g 5.l j 3.z b k.%.*.q.b.&X",
"o S E R R ` 3 N e.P.u 6 E ~ S E Y ,._ U ^ K V 7 3 1 5 * * * 3 1 * * * * 2 1 * 3 3 * 1 3 1 * = 5 5 * o j k j z j v b d v.A.m E.$X",
"o h S r h V C s g 7 I u P R z _ E R :.E F 5 5 3 1 % = * % * X * % * * * % * % * * o o * * * * 1 * 2 * r x k #.%.} O.E %.+.v b..X"
};
