/* XPM */
static char *_6158_a3f79f5cc7dade0ffe222126a2d0b237afb2bacc21836a6dd74c1dbbc1ae263d[] = {
/* columns rows colors chars-per-pixel */
"64 64 256 2 ",
"   c #040302",
".  c #0B0502",
"X  c #040902",
"o  c #0C0B04",
"O  c #02030A",
"+  c #090509",
"@  c #030909",
"#  c #0C0C09",
"$  c #120602",
"%  c #130C04",
"&  c #1A0D04",
"*  c #130C0A",
"=  c #190D0A",
"-  c #17050A",
";  c #0D1203",
":  c #0D120B",
">  c #081406",
",  c #141304",
"<  c #1A1305",
"1  c #151A03",
"2  c #1C1A05",
"3  c #14130A",
"4  c #1B150A",
"5  c #161A0B",
"6  c #1D1A0B",
"7  c #0B0811",
"8  c #150E11",
"9  c #1D1B11",
"0  c #161513",
"q  c #0C1210",
"w  c #250804",
"e  c #221505",
"r  c #2B1303",
"t  c #231B05",
"y  c #23150B",
"u  c #231C0B",
"i  c #2A1D0C",
"p  c #2C1907",
"a  c #3A1B0A",
"s  c #351909",
"d  c #241C12",
"f  c #2A1D12",
"g  c #251713",
"h  c #351F10",
"j  c #340F07",
"k  c #1E2015",
"l  c #1E2106",
"z  c #242305",
"x  c #2A2206",
"c  c #25220C",
"v  c #2B240D",
"b  c #2D2A0D",
"n  c #2B2A09",
"m  c #33240C",
"M  c #3C240C",
"N  c #332A0E",
"B  c #3A2A0E",
"V  c #372406",
"C  c #2C320E",
"Z  c #39330E",
"A  c #252313",
"S  c #2B2512",
"D  c #2D2A14",
"F  c #2C251A",
"G  c #2E2B19",
"H  c #252918",
"J  c #332513",
"K  c #332C14",
"L  c #3B2C14",
"P  c #332D19",
"I  c #3B2C1A",
"U  c #372517",
"Y  c #2E3215",
"T  c #353115",
"R  c #3B3315",
"E  c #35321A",
"W  c #3B341B",
"Q  c #3E391D",
"!  c #383B17",
"~  c #3C3521",
"^  c #3E3922",
"/  c #343522",
"(  c #2F2B22",
")  c #431D0B",
"_  c #561C0A",
"`  c #451C13",
"'  c #611F13",
"]  c #43220C",
"[  c #4B250D",
"{  c #442B0C",
"}  c #4C2708",
"|  c #5B2B0D",
" . c #562709",
".. c #43350B",
"X. c #58370D",
"o. c #4B2A16",
"O. c #452715",
"+. c #592B14",
"@. c #423414",
"#. c #4D3415",
"$. c #4B3B13",
"%. c #42361B",
"&. c #4B351C",
"*. c #433B1E",
"=. c #4B3C1C",
"-. c #433A14",
";. c #533C1C",
":. c #583516",
">. c #642B0D",
",. c #672707",
"<. c #782B09",
"1. c #66340F",
"2. c #78380C",
"3. c #652B15",
"4. c #663817",
"5. c #7A3A13",
"6. c #783716",
"7. c #453622",
"8. c #443C22",
"9. c #493E22",
"0. c #443D29",
"q. c #563824",
"w. c #4C2B22",
"e. c #743923",
"r. c #3D421C",
"t. c #3C4524",
"y. c #48421C",
"u. c #53421D",
"i. c #5B4718",
"p. c #5D4D11",
"a. c #64490B",
"s. c #79450D",
"d. c #6C5D0E",
"f. c #68461A",
"g. c #754518",
"h. c #695919",
"j. c #735D12",
"k. c #795916",
"l. c #77550B",
"z. c #6B6410",
"x. c #7A6A1A",
"c. c #776617",
"v. c #7B680E",
"b. c #454125",
"n. c #4B4224",
"m. c #4C4429",
"M. c #474A26",
"N. c #524424",
"B. c #5C4A24",
"V. c #514529",
"C. c #554A2C",
"Z. c #5B4C2A",
"A. c #564723",
"S. c #4B542D",
"D. c #57572A",
"F. c #585634",
"G. c #535233",
"H. c #684923",
"J. c #774827",
"K. c #64552B",
"L. c #795329",
"P. c #645434",
"I. c #6B5B33",
"U. c #695C36",
"Y. c #714F31",
"T. c #5B6433",
"R. c #5D6736",
"E. c #5A612D",
"W. c #666637",
"Q. c #75663B",
"!. c #67723D",
"~. c #786921",
"^. c #6B7344",
"/. c #737040",
"(. c #862F0F",
"). c #893A0A",
"_. c #873B15",
"`. c #91361B",
"'. c #8F3210",
"]. c #A93E18",
"[. c #8F3B23",
"{. c #88450D",
"}. c #94480D",
"|. c #8A580F",
" X c #824A1C",
".X c #884817",
"XX c #9B4B13",
"oX c #964718",
"OX c #865618",
"+X c #975518",
"@X c #96570D",
"#X c #A54B19",
"$X c #A5581A",
"%X c #B45818",
"&X c #B24A17",
"*X c #997B0D",
"=X c #886816",
"-X c #926A17",
";X c #8C7B14",
":X c #8C7C19",
">X c #857617",
",X c #947C14",
"<X c #927C1A",
"1X c #99771A",
"2X c #876E0A",
"3X c #AA6C1D",
"4X c #BC6618",
"5X c #AB7A18",
"6X c #894C22",
"7X c #834824",
"8X c #9F4C24",
"9X c #954728",
"0X c #885625",
"qX c #955725",
"wX c #895634",
"eX c #955D33",
"rX c #A34B28",
"tX c #A95926",
"yX c #B45829",
"uX c #946325",
"iX c #9B6623",
"pX c #897A21",
"aX c #997724",
"sX c #8D6838",
"dX c #AA6628",
"fX c #B66829",
"gX c #A57726",
"hX c #B7742A",
"jX c #A26232",
"kX c #A77032",
"lX c #B96F33",
"zX c #D85E1F",
"xX c #C76718",
"cX c #C9772A",
"vX c #CC7A2D",
"bX c #C85E36",
"nX c #8A7548",
"mX c #AE7748",
"MX c #8D841A",
"NX c #93821D",
"BX c #9B851C",
"VX c #988A16",
"CX c #968A12",
"ZX c #AB8D0E",
"AX c #A38A18",
"SX c #A99719",
"DX c #B39211",
"FX c #918223",
"GX c #A38725",
"HX c #B18725",
"JX c #B3902D",
"KX c #D39031",
"LX c #D4871D",
"PX c #B28B4D",
"IX c #C89650",
"UX c #E59941",
/* pixels */
"= % % & % $ $ $ % , < < < < % % , , 3 o o < 2 c b D D 2 , < , , u u , 4 e < % < , , u < < < < < % = . A D K E W b.b.T W %.Q y.W ",
"% , 4 4 < & % $ & & % y t & % < 4 , , , , 2 < 2 Y t.K 2 < < 6 6 2 e u u N u 4 , % % 2 6 u < & % % $   A E K P ~ ^ ^ W Q 8.Q 8.R ",
"% & y u t & = & o % e S P U t 6 < < 2 < u c u 2 z b.v 2 t 2 2 c t e u u L v 2 < 4 6 < , & & & & % $ . A E E E W W W Q W W R *.R ",
"% % u v i & < & & < i t i L c u 2 t u < 2 c t u Y t.n 2 2 2 u < 6 2 , u L i < u & % $ = & & % & % - $ f E E K T Q *.b.Q W W Q ! ",
"4 $ i L v y 4 y i S i i < e D A u < 2 2 2 6 A / t.S.t.C Y c u e 6 e % f I y 3 4 % $ $ f g & & g % $ $ d K E T E W %.m.8.W Q ^ T ",
"e % y L L f y m y i t e e e v 2 5 1 , 3 6 l Y M.t.t.S.S.r.1 2 1 6 2 o 4 I w = % 4 & & 4 y & & w & - . f T W E 8.W Q b.n.%.=.8.E ",
"2 9 $ J L g y L i y u % < G 6 6 5 6 3 , , l D Y Y Y t.S.t.C Y Y l z , < I r y 4 % % & $ $ & & $ 4 = * S E W E Q Q Q 8.8.Q %.b.W ",
"< d . p L g y R J c y % y A , 5 5 , % , 4 < 2 l H z C D.T.E.E.C ! y.! S L i 4 y i < 4 % % % & 4 . $ . A W Q W Q 8.Q 9.9.-.W 8.7.",
"o 4 i y f m m &.U h < 2 S 5 , 1 2 ; & , , % 5 < c l ! S.E.R.R.T.R.!.D.D L m = 3 4 3 & * $ 3 % 6 % $ # A T ^ *.W Q W *.m.R W Q E ",
"% 4 A t L I U O.U i I c & % 4 5 5 3 4 = ; = * & < A n T.W.^.R.!.R.!.D.z m L & 3 & $ % % & % & 3 < =   c T 8.Q Q Q Q 8.b.W Q %.%.",
"3 < c U J I J L i J 0.u o . . # # 4 % ; : o 3 : 4 c C T.!.^.R.R.R.R.R.D x -.d < . = 4 4 g $ $ $ g f . S ! ~ *.*.8.b.n.m.8.%.8.W ",
"% d S K e J W J t L D % % . # $ # % 3 > < m < 3 y c M.T.^.T.R.S.! ! S.D p W y o $ $ % 4 y $ & - & &   A T ~ Q 8.8.n.n.V.8.%.8.%.",
"o S b %.e i W J i u 4 % % % 4 # o # > o #.2.' w < l M.R.y.c / T 3 2 2 4 u m $ $ * . % $ 4 & $ $ 4 & . F W ~ ^ Q 8.=.n.V.9.W n.Q ",
", c b 9.W y W U S 4 9 3 , 3 4 o , 8 # <  X}.9Xj 4 c ! ^.! , 6 < o 3 o # c J - . . = 4 % < & $ $ 4 .   A E 7.8.W Q Q b.V.=.*.n.W ",
"o c T =.9.f 7.N S 4 4 3 o 6 3 4 3 3 4 %.jXJXOXw & u A R.r.v 4 = * % o * u m &   $ = = % % % & % f 4 + F W ~ *.Q 8.Q m.n.=.8.b.E ",
"% l T =.9.J I J S t 4 3 ; k 4 3 0 4 U ] oXgX8X` & f D r.! T % $ $ o , 0 J x . 8 4 4 o , 4 4 = % & 6   D W W *.*.*.b.m.8.8.8.8.T ",
", l K W %.W J K c i 6 3 * 9 6 9 5 9 F ; qXfXtX_ = 6 W / 6 ; $ . . % * % v P G 3 # . o g , = % .   X   P R E n.=.W M.n.=.=.*.^ E ",
"3 2 T T B W S I L u 9 3 * 6 4 6 4 4 1 o i uX7Xj 1 9 y 2 % ; $ # # X # * J L 4 . . o , 6 % , , & # .   P Q ^ n.b.*.n.n.n.m.%.8.E ",
", , E E L 9.L 7.8.J d 3 o 3 9 d 3 1 o X w.jX+Xg.] 1 1 : # o .   o . # . A i $ # . & 4 6 % < 4 , * .   I Q W b.W 8.*.n.N.C.*.^ E ",
"o 5 A b L Z.V.N.m.K 6 * , , 6 A : ; = > 5.HXJXlXg.K.n 1 *   $ . o     . P S # o o * 3 c , < < 4 * .   G E I ^ E *.*.n.=.V.%.8.K ",
"; 3 c D I Z.C.B.q.D 6 3 % % , 3 3 3 3 o.+XPXIXdXl.lXqXO.  * o o o X o . U P * o o , 3 6 < 5 < 3 * . + G T P 8.E 8.*.=.=.=.W 8.E ",
"# o S P K C.q.Z.C.L 6 3 o o 3 3 , # N dXOXiX3X$X-XhX+X3.i 3 o X % , * X c J 4 ; * % % 6 4 4 3 , # . + G E E ^ W 8.%.9.n.9.R 0.W ",
"3 o A E v V.Z.K.P.W 6 3 o o : o , # ] |.{.k.1X|.lXs.qX.Xi # o X $ X # . A P 6 . # o X 6 5 6 , 3 % .   G T P W W Q W n.Z.m.W =.E ",
"# o A 8.J q./.I.P.~ y 9 o * , # # @ 4.0X.X+XcX+X-X[ 9X#Xp 8 % # * o +   t A g o # . . 4 4 3 $ * *     G T P W W *.W n.C.y.R 8.E ",
"% o 2 m.&.Z.Q.I.D.7.I f 1 . # # X > 6.fXqX:.-XOX[ = 9X8Xi X , . o o . . g P 6 . . # . 3 % < % # # #   G T D T E 0.K y.m.C.W ^ ^ ",
"o # 2 G.n.Z.Q.I.I.W I ~ *.9 o * . 0 rX .a.3.[.|.0Xr rX#Xs @ % # # X     $ c 4 *   o . 3 o % #   + .   D T K K E ~ W n.Z.C.Q E T ",
"# 3 6 G.q.I././.Q.&.0.%.F.f o o   O.[.| OXX.uXiXqXM 9XbX] X # O .   . * X 6 , o   o   * o . o +   X   F E P E E ^ W m.M.m.8.T W ",
"3 * z M.B.nXQ.U.Z.A.C.W 9.% X : X 5.g.iX$Xf.=XaX1X..6.yX .; . . . . # # . 6 u o   .   # o X o   #   X S E G / E K Q b.N.V.L %.W ",
"3 # 6 y.P.nXQ.W.0.A.9.A U # @ X U rX|.iXaXOX+X-XhXh.eXrX+.y   # . .     . 4 G * .     X X   #   O     A E G E P D R 8.V.C.*.W 8.",
"o : A @.W.Q.Q.P./ ;.7.F 4   @ 4 rX9X=X$XHX+XhX1X3Xg.rX[. .O.  @ + # .     X A 6 o X   # #   #         D E G T E G ^ T C.n.8.0.W ",
"o o S y.Q.FX/.7.W =.u F . # . 4.rXf.-X3X5X-X*XgXJXuXbX6. .g.  o + . o O     3 9 #   . X #   o o       G E P E I D E *.m.W Q R W ",
"; # P F.Q.Q.F.9.7.J k 5 % X y yX] y.1XNXGX+XtXHXAX-XfX .| 2.8   . .       X o 9 *       3 X # .       P W P W ~ ~ W 8.8.W 0.Q T ",
"* 1 ^ W.Q.Q.D.E P D S y @ 3 9X3.  h.*X>XBXg.:XaXMXuXtXj g.p O # @ O         @ 5 3       # O # o       A W E W ^ 8.8.W 8.8.9.W E ",
": z u.Q.U.i.N.U H t A 0 : J.6.O   h.1X,X1Xg.:X,XVXhX`.j OXt   . X   O O #     % , . O   . $   q       F E K P E T K E 8.9.n.8.W ",
"A G D.I.P.B.0.F S w.q.6XkXhXg.1.f.h.NX-X-Xl.<XBXGXlX4.<  X= O   .   X O X O   : q     X     o *   O + F E K K E v D W b.m.n.*.E ",
"c ~ K.K.P.M.H.J. XjXcX%XqX{.fX1X4Xg.NX1X<X=X>XAXaXvX.Xe 4.& y 6 i o.M O.V g w y 0 ,     X . # @       H ^ E P P E E E ^ 8.8.8.W ",
"z N.i.F.H.i.oX7X8X5.X.3X.X:.cXuXXX|.BX,X>XOX=XDXZXOX1.a g.U y | 4.L.g.g.0XL.g.g.f.o.a & X +   .       A E E E P E P E E =.=.8.^ ",
"P V.u.f.{.0X.XO.J.xXtX7X{.qXLX+X,.OXFXAXCX+X-XZXSX=X#.[ +X:.  4.6Xq.6.+.4.+X#.2.s.wX X1.` .   .   O   A P G G G F D E Q b.b.*.W ",
"R n.0XeXxXkX0X0X:.| zX#X1.vXLX}.>.+XMXVX,X@XOXSXMXHXa.4.$X).3.O.XX2.2.6. ._.) >.5.5.J.M :.:.-         A G D D G D D G W *.b.*.Q ",
"W D.g.q.g._.-XUXKX2.2.%XoXcX4X5.1.xXaXMXCXiXl.DXVXBXp.2.g.M <._. ..X>.'.| (.' ,.3.' O.@ X X.} X   O   d D D D A D G D E R =.*.8.",
"Q f.,.{.{..XhXJXIXmXe..XqXdXXX3.$XxX*X>X;X<X2XSXVXAXf.#.1.) - }.3.<._.<.6.(.3.,.,.>.) = O   f.o.  O O A G l A c E D P W W %.9.*.",
"^ 2.2.mXmXq.Y.sXPXwXwX4.fX+X5.5.$X%X1XVX;XNXAXAXBXAXl.>.1.).& p _.| ].2.(._.6.<.3.' 2.a O   & 4.<     g D D A A D G I W 9.*.=.%.",
"T wXtX#.Y.wXh w PXnXv i 7X0X.XXX@X%X-XVXMXMXAX1XGXVXs.<.a | '.$ | <.]._.,.<.,.`.' _ _.)   #   a U     d P D A F c P E E n.%.*.8.",
"v H.mXW.nXPXP.;.PXP.u ; / hX.XoXXX#Xg.VX;XNX*X,XVXNXa.o.` & | J.s g.3.).,.(.,.'._ ,.[ o.o .   e a   X 9 S P H A D E E T y.Q *.b.",
"6 R nXsXY.P.P.Y.Y.K S *   J.+Xs.`.}.:.MXMXNX,X>XZX<X$.s U y % s * @ . s j >.+.(.>.] | _.< X   f p   X k K D S C D D K W 8.Q R Q ",
"A E 9.@.K.H.Z.Z.8.! D X . 8 L.jX_.}.3.x.:X>XNXz.ZX1Xu., e # 1 3 . % i 8 w ) 2.<.'._ 3._.M @ . [ $ + X k D J D S D S S ^ b.*.Q Q ",
"y J / B ;.b.-.-.7.P u X # O & wX_.$X_.k.MX;XMXz.SXNX=X: * o , o 4 i f r $ O a 6.'.<.[ 2.+.X M p       d K D A S D D D E b.8.*.8.",
"5 B ! A 7.u.%.7.W I 9 & o X o < +X$X#XaX>X<XVXh.CXAX>Xt o = $ 0 e u r = $ #   # } e.2._ | 4.g     @ o g K K A F D G D P b.Q ~ 8.",
"4 I K R B.A.W T =.7.y : # # : X 0XtXtXuXx.NX,Xh.x.ZXBXR O o , : y #.s i . * o X   o :.2.4.) #.s     - H D N c G S K K K ^ K W Q ",
"< S T R Z.B.J t =.Z.i X o o 3 X :.%XXXsXx.;XGXd.c.MXSXz.. 3 4 o r O.) i   . $ 8 $ < a  .g.1.s.H.4     9 c D D P D G D K ^ ^ E W ",
"u N N x u.n.t b R n.m.Q S 6 < , I qX+XwXz.v.VXj.p.x.CXv.4 o # = $ ] L.x 7 $   $ U ] i 0 O a -X5.m X   u H D P S D D D K 8.b.R W ",
"z K N x =.9.v R ! V Q Q z E E 6 6 +.XXOXc.x.;Xc.i.c.CXVXh . 1 < o J g.+.& 1 h I e O : x y X B dXf.X O u S P D P I K W D 0.0.K T ",
"u t n n Z -.R Q ! D b Q T C E D 1 #.}.J.~.~.pXj.j.x.pXVXh., 1 5 > { 7Xo.1 l J v < , < 0 2 < # :.XX% O 6 S L D E P J ! J b.0.E E ",
"u c A b Z R u.u.! ! D v N ! E c k S ).9Xh.x.>Xd.j.>Xd.v.>XR & = i 6.) > 3 g 5 6 6 6 1 3 , 3 O } &Xs O k P S T G D D S K 8.n.W W ",
", c S D N Z @.$.t v v b b b b D t A 5.#Xh.x.v.d.i.>X>X>Xa.p.] B 6Xm # < u 6 5 6 1 : 1 o : X H.$X.Xe   9 D A E T P Y T W %.Q R E ",
"6 z k S n N L @.@.8.u K Q N T Z f.tX#Xa.i.:Xz.p.z.c.;X;Xx.;Xk.>Xf.x 3 f l l z u 3 1 5 ; o > N :.p X o A K P H W D D W W Q K W E ",
"3 6 c z b T Q Z A...@.&.;.B.A.=.H.L..XOXl.x.x.c.NXv.*X1XCXAX5Xx.=.L v v z z z D c S 2 ; , ; X o , 3 X c D P P K E P E T 8.L W W ",
"; 2 6 c z b N n Z C.9.-.N.B.B.B.V.n.u.f..X+X@Xv.2XpX3XoX&Xy.:.m B N N K J S v v u c u , 3 * o o o # o A Y G P T D E W W W E W E ",
"o 1 2 l c b N x x W K J -.u.i.K.i.=.N.u.q.9.;.q.y.@.{ #.'.s b L B M N m v z D v u c c < , . . % o #   A P P E E P E W E E K W K ",
"o 5 6 c c F D c c u u c z =.N.H.y.y.u.i.i.u.=.9.$.&.&.E { %.O.U @.L m v z u c u t t e < %   % & & . . A S K E W W E T ^ E K W E ",
"X 3 2 2 u u c c b c 2 c 2 T @.u.f.i.:.=.;.;.u.:.q.#.=.q.@.@.$.@.%.B i u u u u u c c v c 6 & & 6 < * X c b E 8.Q T E K 0.S E Q W ",
"X , , 1 2 < t z z l 6 F v v K O.W *.7.7.T T =.#.@.@.! W 7.:.u.&.L v i i u d u u D v i c d 4 %   , & o S K W 8.*.T K W ^ J K 8.E ",
"X , 1 , u 2 2 c t c d A c J R m J L L @...O.L L J T ] M v m J m i y A S A u u < < d c u < o . % % 3 o S E W 8.y.8.R Q W W E 8.Q ",
"  % , 2 c u 2 t t < y < 2 x x L B m J S J L J m M u J v u f A t 4 6 u u e < u 4 < u % . . * X # o %   A P W W 8.m.R D ~ P ^ Q Q "
};
