/* XPM */
static char *_481_926c55321f4a0b432efb7fa5f03497b51c784bc0235c20deffab5de648d628f1[] = {
/* columns rows colors chars-per-pixel */
"64 64 256 2 ",
"   c #020204",
".  c #0B0404",
"X  c #040A04",
"o  c #0C0A04",
"O  c #03030C",
"+  c #0B040C",
"@  c #04090C",
"#  c #0C0A0C",
"$  c #140D05",
"%  c #1B0B04",
"&  c #12040C",
"*  c #130C0C",
"=  c #1B0C0C",
"-  c #170608",
";  c #0D120B",
":  c #151205",
">  c #1C1404",
",  c #14130D",
"<  c #1B130C",
"1  c #1C190C",
"2  c #191B06",
"3  c #040312",
"4  c #0B0412",
"5  c #050A12",
"6  c #0C0B13",
"7  c #04031A",
"8  c #070A1A",
"9  c #0C0B1A",
"0  c #0A031A",
"q  c #130513",
"w  c #130B13",
"e  c #1B0C13",
"r  c #130B1A",
"t  c #190917",
"y  c #0D1217",
"u  c #141214",
"i  c #1C1412",
"p  c #1C1A12",
"a  c #13121A",
"s  c #1C141A",
"d  c #1A1B17",
"f  c #240D0C",
"g  c #270C05",
"h  c #231304",
"j  c #2B1304",
"k  c #241B04",
"l  c #22150C",
"z  c #2B140B",
"x  c #241B0D",
"c  c #2A1D0D",
"v  c #2C1B05",
"b  c #351809",
"n  c #240B16",
"m  c #231413",
"M  c #2B1314",
"N  c #251B12",
"B  c #2A1E12",
"V  c #2A1D1A",
"C  c #25171B",
"Z  c #341914",
"A  c #320D07",
"S  c #1C2416",
"D  c #1A2809",
"F  c #2D2302",
"G  c #25220C",
"H  c #2B220E",
"J  c #2D2A0C",
"K  c #262906",
"L  c #352405",
"P  c #342A04",
"I  c #33240C",
"U  c #3C230B",
"Y  c #342B0C",
"T  c #3B2B0B",
"R  c #3B2905",
"E  c #3D340D",
"W  c #3A3705",
"Q  c #252212",
"!  c #2D2213",
"~  c #2D2B15",
"^  c #2C231A",
"/  c #262A19",
"(  c #332514",
")  c #352914",
"_  c #392A15",
"`  c #33251A",
"'  c #362A19",
"]  c #3A2C1A",
"[  c #3A2414",
"{  c #2B361B",
"}  c #343314",
"|  c #3B3412",
" . c #3A361A",
".. c #273100",
"X. c #0B0C21",
"o. c #141622",
"O. c #150B22",
"+. c #283726",
"@. c #393827",
"#. c #2A2C28",
"$. c #1E1F22",
"%. c #471A09",
"&. c #561B08",
"*. c #451814",
"=. c #551610",
"-. c #671B07",
";. c #731A03",
":. c #7A1B05",
">. c #791F14",
",. c #422B03",
"<. c #44230D",
"1. c #422C0C",
"2. c #482506",
"3. c #592608",
"4. c #423505",
"5. c #4C3D05",
"6. c #43330C",
"7. c #4A340B",
"8. c #443C0C",
"9. c #4B3C0C",
"0. c #463A03",
"q. c #523D03",
"w. c #523D0A",
"e. c #583607",
"r. c #452814",
"t. c #5A2612",
"y. c #433313",
"u. c #4B3313",
"i. c #4C3B13",
"p. c #46381A",
"a. c #553914",
"s. c #682508",
"d. c #782508",
"f. c #673806",
"g. c #773807",
"h. c #682515",
"j. c #653816",
"k. c #783914",
"l. c #453622",
"z. c #583A23",
"x. c #39410B",
"c. c #334219",
"v. c #274024",
"b. c #394229",
"n. c #4C420D",
"m. c #494306",
"M. c #544403",
"N. c #5B4303",
"B. c #5C4B04",
"V. c #54430B",
"C. c #5A430B",
"Z. c #5B4A0B",
"A. c #534B08",
"S. c #5C520B",
"D. c #4A4616",
"F. c #524412",
"G. c #5B4B13",
"H. c #574718",
"J. c #595418",
"K. c #4C5213",
"L. c #634C0A",
"P. c #684B07",
"I. c #75490A",
"U. c #6A5509",
"Y. c #675507",
"T. c #725403",
"R. c #745C04",
"E. c #74540B",
"W. c #795B07",
"Q. c #654915",
"!. c #7B4916",
"~. c #685616",
"^. c #765B16",
"/. c #7B620C",
"(. c #766307",
"). c #766517",
"_. c #6A630E",
"`. c #494722",
"'. c #574525",
"]. c #51512C",
"[. c #634B26",
"{. c #675928",
"}. c #675B38",
"|. c #765D35",
" X c #726A33",
".X c #5F6222",
"XX c #7B7441",
"oX c #871D06",
"OX c #941D04",
"+X c #8E1B12",
"@X c #842205",
"#X c #8B2403",
"$X c #84230B",
"%X c #8C2409",
"&X c #872B08",
"*X c #942607",
"=X c #87350A",
"-X c #963B08",
";X c #8F3515",
":X c #A42405",
">X c #B03709",
",X c #C43900",
"<X c #864705",
"1X c #865909",
"2X c #97580A",
"3X c #874713",
"4X c #865716",
"5X c #964D10",
"6X c #A84907",
"7X c #B74904",
"8X c #A95309",
"9X c #83630A",
"0X c #896707",
"qX c #976909",
"wX c #88710B",
"eX c #9B7509",
"rX c #886614",
"tX c #976913",
"yX c #8B7417",
"uX c #9A7312",
"iX c #A56808",
"pX c #A7790A",
"aX c #A76517",
"sX c #A87A13",
"dX c #B4730C",
"fX c #885A29",
"gX c #876A2A",
"hX c #897127",
"jX c #837038",
"kX c #AD7623",
"lX c #AF7130",
"zX c #C95B06",
"xX c #CF5408",
"cX c #E36B04",
"vX c #DB7510",
"bX c #8A7445",
"nX c #AC8808",
"mX c #A88415",
"MX c #B68714",
"NX c #B99616",
"BX c #B48D07",
"VX c #B38F2C",
"CX c #9B8325",
"ZX c #D78C21",
"AX c #D39F1D",
"SX c #8C8752",
"DX c #AF934A",
"FX c #A99267",
"GX c #CDAC54",
"HX c #E3AE52",
"JX c #F0BA6B",
"KX c #CDB261",
"LX c #E7D36D",
"PX c #DAC366",
"IX c #FDF9AB",
"UX c #F5EA96",
/* pixels */
"/ G 1 Q S 2 r # 6 # u < i < i < # % z %.*.k - b =.3.3.%.A A %.b t i r . o w 4 X # X + + + X + X o = k k x N l c H ! B c ! c c ) ",
"u.q._ V.9.] K , 6 u u s d C m < s v -.s.s.-.&.3.-.;.;.;.3.-.s.-.b < 5 5 O 5 7 # 4 # # # + O O O . $ < x x m l c H ! x c ^ c c ( ",
"` E H.V.Q.yXa.V d a y 5 w a s s n a 5 *.s.s.$Xs.:.:.d.$Xd.#X#X@Xd.-.&.;.%.* O + 5 9 # # X + O O . + < B x i l H ! B c c ! ( H ( ",
"#.D  .K.p.`.@.$.9 r a 8 8 5 u r 9 r t 8 n s.d.&X%X$Xd.>.oXoX#X%XoXoX+XOXoXn 9 q w w u # O + # @ * . < ! B l x ! c ! B ! c c B ( ",
"} J.]._.K.b.{ o.6 9 X.8 X.8 o.9 q n s < ` i.*.=.&X=X&X#X#X%X%X$X*X@X>.%XoXM r 9 * e w + O 4 , * i . % ! H x m B ! c B B ! c [ _ ",
"$.+.K.b.v.+.+.+.9 9 8 8 X.a o.a e w y 5 bXDXl.^ Z =.:.#X*X%X@XoX:.oX#X:XoXb 6 f = i u 3 3 @ w < < o $ ! c B N B ( ^ B c ( ( ( _ ",
"#.+.b.+.v.+.b.+.9 9 9 8 9 9 r u < O.O.C [.|.{.[.y n *.s.#X*X%X*X@Xd.%X*XoXs.+ n = w 6 @ 3 O + w * . * Q Q B B ( ( ^ B c ( [ [ ] ",
"^ } c.v.v.S +.+.4 5 r 5 5 6 r y w 6 r.wXL.Z.yX[.'.' c t.$X%X$XoX+X:.#X*XOXh.O # t 4   O 3 3   + + O * ^ H c c ( c B x z ( ' ' p.",
"/ { @.+.v.D.~.} X.w 9 9 w 6 y 8 r N S.).|.nX3Xk.[.r.r.U Z =.d.oX:.oXd.OX*X3.-.=.4 7 e O O @ O 3 O O : Q x V c B c B c c ( ' [ _ ",
"$.{ v.+.~.eXeXb.5 u w 8 O.9 6 O 5 #.|.lXVX1XaXu.= u.p.) b Z =.d.oX:.*X:X@X;.>.;.A + C q 3 X @ O   O i ( B B c H c ( c c ( ' [ ] ",
"y S {  ..X~.yXH.4 9 6 O 3 4 6 9 . bXSXaX`.@.gX^ q T 9.3.t.f n *.d.oX*X*XoXoXoX#Xd.= * + 3 O + O   O i ' B B c H ( ( c l ' ' [ ] ",
"y o ~  .K.).).~.o.3 @ y 8 + & 4 q }.H.r.@.SX}.4X] e j.*X:Xs.z q &.$X*XOX*X%X*X:X;Xe 5 + O 5 # O O   , ( B ` B V ' ( c c ' ' [ _ ",
"d @ O p.wXR.~._. .9 7 3 + t & 9 O.+ . 7 l.DX Xj.%.= M h.&X#X*X%X#X*X:XOX:.:.d.:.:.& 5 + 3 3 6 3 O O w Q ! B ( ` ( ! c c ] ] [ ] ",
"X.6 9 B _.[.G.H.H.G.r.n 4 9   7 q ` FXz.fXDX XN t.g t =.h.*.j.d.#X#X#X$X:.d.$XoX3.& 5 + 4 O O O # 3 i Q Q H I ( ( ! H c ( ' _ _ ",
"r # @ @ } J.D.K.H.fXk.I.H 7 ( fXbXIXGXzXzXhXu.3.v 3.3.r.- ^ P ~ -.OXoXoXOXd.#X%XA @ 4 O @ x I 6.R x B G x B I Z ! ( ! ! ) ] ] _ ",
"6   6 s & s D.J.| 9.g 3.I.lXHXJXKXUXbXcXcX3Xk.g.3.j.3.'.XXK.SXGXQ.3X;.:.%X#X@Xh.q 3 4 3 X i.G.Y.Y.4.I x C ^ ! B ! H ! ( ' l.] [ ",
"a # o 5 9 6 s  .d D.a.j.3X4X4XE.4XKXtXxXxX5X|.2Xg.r.s.H.].jXPXGX9XfX-.;.;X*Xg.c O O O O & y.G.U.R.7.B B x ( ( B ` ( ( ( ] p.( l.",
"r @ O + + u u H u n.'.].a.2.%.b *.[.jXxXxX7X'.].T.f.s.U { DXSXjXr.j.;.;.-X-X2.1.5 O 8 7 Q M.C.(.T.w.H N B ! c ( ` ( ( ' ] l.( ] ",
"6 O 3 3 # w w Q d D.` } , i e C < g B &X7X>X5X~.3X1X2X~._  X|.l.q b <X-X-Xk.7.b < 0 @ d C 0.L.q.P.A.P B V B c ` ( c ( ) ] l.[ ' ",
"6 O 5 3 @ O i  .+ p.' N 6 # = e p M # M 3.-X>X8XiX0XiXpXj.a.}. XN M 3.=X7X-XT s & 0 u ! 2 A.Z.V.B.A.P C B c B ( ^ c ( ( ( r.' ' ",
"9 O O 4 0 O ' J.# x p.l + . = m e f # r & A d.%X=XI.I.5X<Xf.l.XX` & h.f.7X5X= $ 4 3 9 < p 8.H.V.G.n.Y N ! H ` ( ( B ( ) ( l.' ' ",
"9   O @ 8 w D.{.{ # ^ < r w + l m + n m : N Z <.d.g.<X2X<Xf.w.].XX}.3.j.8Xg.Q 9 * 4 ; u r F C.~.n.Y c c H x ^ ( ( ( ' ] _ ] ' _ ",
"9 X @ @ 3 , D.F.D.@ # c w 9 + i 4 w z n M j h $ r + f.iXqX<Xk.hXIXLX^.f.8XL l N u + X o x 8.W A.G < h k B m ! ( ( I [ ] ( ] ' ] ",
"w   O 4 3 ^ K.i.F.1 # } w . r = & 6 # > = & n w = + 3 P.dX2Xf.DXIXGXtXe.d.a.i.+ 4 4 3 w C ) , e i i x H ` B ! I _ [ _ _ ( ' ' ] ",
"6 4 . O 4 G _.(.^.} X d w + # q w + w r w o q w - Z g.iXpXpX<XGXIXDXW.j.&.s.c @ O O 5 w , w N = w 2 c B ( ( H H ' ( ] ) _ ] _ ] ",
"y   + 4 9 + ) G.J.2 O d * + $ e & # & = = = * + : =X3X-XiXdX8XHXUXkXtX3.&.f.J 7 4 O w * h ) i.L > = l x V ( ^ ` ( ( ] [ ) _ ' ' ",
"6   3 4 @ O r y.} # 3 $ > 4 * & * = $ . * * w 6 3 j.j.r 2XaX<XLXLXMXrXv b Y , 5 7 . 1 i m l I y._ B h k ' ( c ] ( ) ' [ ( ' ' ( ",
"9   @ O X O w ~ +   4 B m 7 * w + e = m * . + O 6 j.gX@.C.6X3XHXlXDXP * t / x 3 + 6 p * 9 w + p U c c H ^ B B B ( ( ] _ ( ( ' ( ",
"9     @ 3 O + , O , P E C 3 O o * * = m w + 4   ^ hX.Xb.2X5XlXZXI.V O + 4 X B p # O 5 3 6 : + # % I c x N ^ l c ( ( ' [ ( ( ( B ",
"9     5 5 3 + O + ~ .Xm.I o   O + 4 & w + 3 6 + J.{.`.`.7.3XZXd.a.C o ( z # X 3 O O 4 O + < w * i Y k x N Q > I ( ! ' ( H ! ^ x ",
"w O O O 3 4 4 6 w 1 } m.9.( < O O & * w O O O e |.`.'.] 7 VXZX:.a.s '.H.l 9 3 O 7     + r 4 + e t   $ ^ N N l N ) ! ' ) ( B B x ",
"# O O O O 4 + 2 * 6 O ! L T E p O + + O 3 @ o ] .Xn.p.k M kXdX*Xh.d }.[.) > 3 O 7 O O   O O p # X O # G H x x ^ ' c ) [ ( H N x ",
"@   O 4   3 4 ! o < @ ~ `.' ) @ O O 3 + O * &X[.`.i.r.-X7X!.8X:X-.m {. Xy.a 3   o w +   O w 6 + O   * Q c B m ! ^ ! U ] ) ! x x ",
"9   3 +   O   K 6 k 5 : '.s 6 O G u.d G 4.<.=X'.'.V =X,Xk.I.>X*X=.h {./.8.* + X & w w O O O + + 3 O * Q I B x ! ! ( ) ] _ ' N x ",
"8 X O O X 3 O D 9 1 X + l y 3 ; B.B.B.G.^.{.7...S O ;Xd.u.>X:Xd.%.A }.hXF.r   O + + + O     O 3 O O $ Q H ^ l ! ( ) ] ] ' ! x l ",
"X.O O O O 3 O N Q x m O @ o G a.U.E.~.1XuXY.9.< = f.<XZ @.{.dXqX7.A '.jXV.5 O 3 O O O O O O O O O   * B Q ! l x ) )  .] ' x x x ",
"8   O O # +   u 0.D R q.J.C.G Y w._ T.eXwX/.^.;X6XxX5XV C y.wXeXL.^.I {.{.@ O O 3 @ O   O O 3 O O   , G B ^ l H ' ) _ ) ' ^ x x ",
"6   O O 3 3 O O Q F.~.i..X_.3.( x e ~ T.qXwXeX7XzX7X7XgXe.r.2.4XuXW.v N S O     O O O O O @ O O @ O # Q x B l ( ( ' _ ( ( ( x x ",
"6 O O 3 w < > * ; Y.D K.NX2X4X,.L tXqX1X/.eXpX8X8XqXNXAXAX2Xj.E.iXW.r.u 8 3   4 O O O O O O O 6 6   * N > N N ^ ! ] _ ( B ^ x B ",
"9 O 3 & U w.L.w.1.W wXeX~.p.v ( 4XiXqX9X^.qXNXaX1XNXBXBXNXMXnXsXrXrXf.,.* 4   O O O O O O O @ # @ O * x % x B B ^ ` ( ( ( B x Q ",
"r O H E P F.wXe.,.G._.O ! 7.' ~.I.0XsXeXyXwXMXsXmXmXsXpXqXnXBXBXtXE.N.7.% w 4   O + < 3 7 O O O X O * G < x H ( c ] [ ! ( x B B ",
"9 X I.I...Y f.u.i.B.Y.> P j.rX5XlX).W H B ) P T D.V.~.yXVXNXNXsXU.C.e.2.< = f 4 3 g e.F 4   O @ # 4 * x < 1 B ` x ] ] c ( B B B ",
"; K H.pX/.} { x.~.B.f.f 2.=X5X=X<XF.X X     @ 6 X 1 ~ B | _.mXqXY.F.a.<.= g b O K f.s.U 4 + O + 4 + < N : : N x x ' @.( ^ B x ! ",
"a N.V.Y.nXmXBXeXu.a.U.1.7.!.j.5.P.n.  O O X   O O O , #   e u._.E.4.,._ = z <.> b f.f.A O 0 o 3 w   $ N < < N > B B ( B ! B x ( ",
"r N.9X} W ~.(.m.,.Z.r.f P ) G ; y o w # 3 X   O   O O # + 6 # x L U u.6.- M [ %.U M j.2.# 3   u x ! G < : i l c B x l x ! B x Q ",
"0 ..(.W.~.m.4.J <.h - & 3 X   @ X ; , D G 1   O O X   3 3   . + # + i Z j j g <.-   [ f.j   3 B 8.F.} p % < V ! V ( x l B x B Q ",
"i > 7.<.I.Q.q.b b > O     O 4 O & i y d * , , #   O     X   4 + 3 O O + j Z z M h . 4 4XI.4 & (.^.B.F p p x B ( B ! ( x 1 N B ! ",
"< 4 ~.pX0Xe.B b l 3   O 3 X +   O @ 5 2 * 3 5 G ; O O O   O     O     @ @ = g c f -   Q.kXf.q.pXqXR.R i : > ^ ( x x Q < x ! x c ",
"X O 6.MXBXBX0Xr.o + . O 5 O   @ O O O ; i @ : # 2 x O X O O   O O O * m l v j b f   O C kXdXtX9X0XR.4.l : B ! H N < > $ N B x H ",
"X   O M.0X/.(.E.a.T > : X O + O 4 : ) 8.v f h # 3 a J o O J p   , ; . l Z ,.Q.L.n., ; k 8XvXg.E rX(.0.N i x Q B B l x > N B Q ! ",
"&   X w c _ x 7.G.M.S.S.8._ M > K Y.(.(.1.- = =   O : K 4 w 4.x B > * k a.W.T.T.T.~.q.U.aX8Xf.I w.Y.W x m x B ` B B B l N c ! ( ",
". O X 3 O x D.7.A.Z.n.7.w.T x G J N B b g & = h $     ^ ~ O G K.c w < W.rXT.L.u.7.M.G.G.a.7.K.Y.7.V.F B < x ! B x Q ^ x l B ! ) ",
"w   O @ @   o T T Y Y 4.P k N : * 3   . - g M j O   X 3 H : 3 0.A.@ @ L.0XL.w.1.a.C.w.4.S.V.M.R.Q.4.k ^ 1 < ! v c B H h x B ! ( ",
"X O O . 3 * 9.Z.T ( [ z C.b < = 4 %.T.6.t < M c O 0   O : K # J Y.x.O . V.9.9.e.A.e.,.Y m.N.G.A.Y.m.k B 1 x V ! c c Q l x B ^ ! ",
"o   3 # ~ { W R 9.W.P.E.eXP.Z 7.N.sXpX7.3 . h j + &   O X J @ G W D.@ X c y.R U I b e.y.9.B.n.m.A.n.J < l l N Q c B ^ x N B H ! ",
". O   6 x.W @ a.1X1X1X0XqXtXT.0XqXpX4XT   f <.A - h c * O x x O } W O 5 O N l z l : ) E p.f.A.C.i.W J B < < B G c B ^ x x N H ! ",
"o # F m | c 7.9X9X9X1X0X0X0X1XqXdXeXN.I - g g f % v U v % # / o o @ O O   + O   + . e = Y 6.7.V.5.4.) Q x i B c m B ! x B x B ( ",
"> < = ' B.5.9XW.0XE.rXqXqXiXiXiXpX1X1.z = m - = ~ ) c % w + c 1 + @ 3 O o J < 3 O O c 1.4.6.I 5.a.Y l N l p N c l N Q x B N Q ! ",
"% Y I h V.^.W.^.W.W.9XuXqXiXpXdXW.H.L b f + - e h p $ r + i.(.Y.~.Z.4.R ~.rXU.9.H q v y.1.R | W ,.I k G x 1 < B l B Q x B B B ( ",
"k E m.) R M.C.Z.T.9XT.(.0XpXpX/.Z - f b ,.q.B.u.- m 6 , V.W.T.W.T.E.Z.F.w.q.L.V.m.U n H.n.m m c L H 1 > > x < B l c c x x c c ( ",
"k E E 4.9.n.n.P.U.P.^.B.W.1X9XV.v R R b R.rXT.Z.F.P Y G.0XW.P.L.0.Q.5.,.y.6.T L <.,.L f p.W m ( i   w ^ l < < h x B x x x x B ( ",
"k 4.i.5.5.n.V.T.Z.S.a.M.(.^.q.5.G.J.S.G.E.W.R.B.m.p.w.w.q.~.C.4.1.7.1.b c T T j c c M g % x ! n.m   u N l > l B x c c x N B c ! ",
"c L L T 7.R V.M.5.E 4.Z.q.9.0.w.B.0.8.n.F.B.5.4.9.8.9.M.x.P M b H l < & < x > < k c v - r + o J } G 1 x x x < N x B x c B B c ( ",
": $ - = L L | P Y h R T Y G * ) T 4.4.4.F J / : k Y J B H 2 # o &   + o # . + + = x %     $ i H c 1 p x l x < ! B ! x c B B ! ) "
};
